<svg id="phone-black-18dp" xmlns="http://www.w3.org/2000/svg" width="28" height="28" viewBox="0 0 28 27">
  <path id="Контур_10" data-name="Контур 10" d="M0,0H28V27H0Z" fill="none"/>
  <path id="Контур_11" data-name="Контур 11" d="M7.327,5.333a13.774,13.774,0,0,0,.55,3.022L6.41,9.755a16.61,16.61,0,0,1-.929-4.422H7.327M19.378,19.357a16.262,16.262,0,0,0,3.178.525V21.62a19.647,19.647,0,0,1-4.644-.875l1.467-1.388M8.5,3H4.222A1.2,1.2,0,0,0,3,4.167C3,15.122,12.3,24,23.778,24A1.2,1.2,0,0,0,25,22.833V18.762A1.2,1.2,0,0,0,23.778,17.6a14.549,14.549,0,0,1-4.363-.665,1.071,1.071,0,0,0-.379-.058,1.284,1.284,0,0,0-.868.338l-2.689,2.567a18.117,18.117,0,0,1-8.054-7.688l2.689-2.567a1.134,1.134,0,0,0,.306-1.19,12.705,12.705,0,0,1-.7-4.165A1.2,1.2,0,0,0,8.5,3Z" transform="translate(0 0)"/>
</svg>
