<svg id="phone-black-18dp" xmlns="http://www.w3.org/2000/svg" width="38.831" height="38.831" viewBox="0 0 38.831 38.831">
  <path id="Контур_4" data-name="Контур 4" d="M0,0H38.831V38.831H0Z" fill="none"/>
  <path id="Контур_5" data-name="Контур 5" d="M9,6.39a20.87,20.87,0,0,0,.763,4.39L7.729,12.814A25.13,25.13,0,0,1,6.441,6.39H9M25.713,26.764a21.616,21.616,0,0,0,4.407.763v2.526a26.148,26.148,0,0,1-6.441-1.271l2.034-2.017M10.628,3H4.7A1.7,1.7,0,0,0,3,4.7,28.813,28.813,0,0,0,31.815,33.51a1.7,1.7,0,0,0,1.7-1.7V25.9a1.7,1.7,0,0,0-1.7-1.7,19.335,19.335,0,0,1-6.051-.966,1.423,1.423,0,0,0-.525-.085,1.736,1.736,0,0,0-1.2.492l-3.729,3.729A25.677,25.677,0,0,1,9.136,16.2l3.729-3.729a1.7,1.7,0,0,0,.424-1.729A19.256,19.256,0,0,1,12.323,4.7,1.7,1.7,0,0,0,10.628,3Z" transform="translate(1.161 1.161)" fill="#9d8b7b"/>
</svg>
