<?xml version="1.0" standalone="no"?>
<!DOCTYPE svg PUBLIC "-//W3C//DTD SVG 20010904//EN"
 "http://www.w3.org/TR/2001/REC-SVG-20010904/DTD/svg10.dtd">
<svg version="1.0" xmlns="http://www.w3.org/2000/svg"
 width="1920.000000pt" height="1430.000000pt" viewBox="0 0 1920.000000 1430.000000"
 preserveAspectRatio="xMidYMid meet">
<metadata>
Created by potrace 1.16, written by Peter Selinger 2001-2019
</metadata>
<g transform="translate(0.000000,1430.000000) scale(0.100000,-0.100000)"
fill="#000000" stroke="none">
<path d="M0 7150 l0 -7150 9600 0 9600 0 0 2249 c0 1790 -3 2250 -12 2254 -10
4 -10 6 0 6 6 1 12 6 12 12 0 11 -41 2 -50 -11 -3 -5 -48 -7 -100 -7 -116 2
-280 -10 -315 -23 -32 -12 -33 -29 0 -22 34 6 34 -24 0 -32 -17 -4 -34 0 -53
14 -25 19 -34 20 -73 11 -24 -6 -57 -12 -72 -13 -33 -4 -37 -22 -5 -26 13 -2
28 -8 34 -13 10 -8 169 -5 317 7 46 4 77 2 77 -3 0 -17 -36 -43 -58 -43 -11 0
-24 -5 -27 -11 -4 -5 -19 -9 -33 -7 -41 3 -144 -13 -172 -28 -25 -13 -25 -13
13 -14 20 0 37 -4 37 -10 0 -5 -6 -10 -14 -10 -8 0 -16 -4 -18 -9 -1 -4 -13
-12 -26 -15 -19 -7 -22 -4 -22 23 0 17 -4 31 -10 31 -5 0 -7 -7 -4 -15 4 -8 3
-27 0 -41 -5 -19 -11 -24 -26 -19 -22 7 -33 -19 -26 -60 9 -50 17 -45 31 19 3
15 8 26 10 24 5 -4 12 -51 14 -93 1 -18 7 -20 61 -17 41 3 60 0 60 -8 0 -17
26 -40 44 -40 10 0 16 -8 15 -22 -1 -16 -3 -18 -6 -7 -7 29 -83 40 -83 13 0
-8 5 -12 10 -9 6 3 10 -1 10 -10 0 -9 4 -13 10 -10 5 3 10 1 10 -5 0 -18 64
-7 81 14 16 20 17 19 23 -11 12 -55 -14 -113 -27 -61 -7 24 -22 17 -22 -9 0
-19 -49 -35 -81 -27 -13 3 -33 -1 -46 -10 -13 -9 -43 -16 -69 -16 -26 0 -66
-7 -90 -15 -29 -10 -45 -12 -47 -5 -2 6 -13 5 -30 -4 -60 -32 -120 -56 -140
-56 -11 0 -24 -5 -28 -12 -5 -8 51 -9 226 -4 188 6 231 5 228 -6 -3 -7 -13
-13 -24 -14 -10 0 -32 -2 -49 -3 l-30 -3 28 -11 c34 -14 35 -37 2 -37 -14 0
-25 5 -25 12 0 6 -7 4 -18 -5 -15 -14 -31 -16 -83 -11 -51 4 -60 3 -46 -6 18
-11 18 -13 1 -31 -11 -12 -30 -19 -56 -19 -25 0 -38 -5 -38 -13 0 -8 -18 -20
-40 -27 -34 -11 -40 -17 -40 -41 0 -24 5 -29 35 -35 19 -3 32 -10 29 -15 -3
-5 0 -9 5 -9 6 0 11 -9 11 -20 0 -17 -7 -20 -40 -20 -22 0 -40 -4 -40 -10 0
-5 18 -10 40 -10 33 0 40 -3 40 -20 0 -17 -7 -20 -52 -20 -40 0 -49 -3 -40
-12 7 -7 12 -24 12 -39 0 -21 6 -29 23 -32 12 -2 -7 -2 -43 0 -43 2 -58 0 -45
-6 18 -7 16 -10 -20 -26 -22 -10 -58 -19 -80 -21 -76 -3 -77 -3 -71 -19 3 -8
1 -15 -5 -15 -6 0 -35 -11 -65 -25 -50 -23 -65 -25 -188 -23 l-134 1 -26 -29
c-14 -16 -25 -38 -23 -49 2 -18 11 -20 82 -23 44 -2 106 1 138 6 36 6 57 5 57
-1 0 -5 7 -4 16 4 13 10 17 10 25 -2 8 -12 11 -11 23 4 9 11 27 17 55 17 22 0
41 4 41 9 0 5 15 11 33 14 17 3 43 8 56 12 21 7 22 5 16 -14 -6 -18 -2 -21 27
-22 33 -1 33 -1 -7 -9 -22 -4 -41 -4 -43 1 -6 15 -50 10 -56 -7 -4 -10 -13
-13 -26 -9 -11 4 -35 3 -52 0 -26 -6 -29 -9 -15 -17 13 -7 15 -13 7 -29 -8
-14 -21 -19 -51 -19 -23 0 -47 -7 -55 -15 -9 -8 -24 -15 -34 -15 -11 0 -23 -7
-28 -16 -7 -13 -38 -19 -153 -27 -79 -5 -146 -13 -149 -17 -5 -7 -42 -12 -185
-25 -75 -6 -85 -9 -156 -38 -20 -8 -26 -17 -24 -37 1 -15 5 -32 9 -39 10 -15
1 -25 -13 -16 -6 3 -11 20 -11 36 0 27 -3 30 -23 24 -14 -4 -17 -3 -9 3 9 6
10 20 3 58 -5 27 -15 123 -22 214 -6 91 -17 199 -24 240 -10 67 -13 72 -22 50
-6 -14 -18 -68 -28 -120 -9 -52 -19 -101 -21 -109 -5 -14 -12 -7 -152 146 -51
57 -118 110 -127 102 -2 -3 36 -46 86 -96 49 -51 89 -97 89 -104 0 -14 68 -74
84 -74 5 0 32 -22 58 -49 46 -47 47 -50 54 -128 6 -77 6 -80 -12 -70 -41 23
-104 101 -104 128 0 25 -1 26 -13 10 -13 -18 -47 -13 -47 7 0 6 -10 21 -22 34
l-21 23 24 2 c13 0 32 0 42 0 13 -2 18 4 15 19 -3 18 -11 21 -55 23 -29 1 -54
-3 -56 -9 -7 -18 -38 17 -32 36 3 9 2 20 -4 23 -5 3 -7 15 -4 25 3 10 -1 22
-7 26 -9 5 -10 1 -5 -15 6 -19 4 -22 -9 -17 -20 8 -20 3 0 -18 9 -9 14 -18 11
-21 -5 -6 -167 133 -167 143 0 3 7 3 15 -1 8 -3 15 -1 15 5 0 6 -9 13 -20 16
-22 6 -29 56 -10 68 7 5 8 11 1 19 -7 8 -4 15 10 24 15 10 19 23 19 67 l0 54
49 -1 48 0 7 -56 c8 -66 20 -86 46 -72 15 8 16 20 12 87 -6 100 -22 120 -66
84 -9 -7 -22 -11 -30 -8 -8 3 -28 1 -44 -5 -48 -19 -59 -1 -67 105 -4 51 -8
110 -10 132 -2 22 -7 87 -10 145 -5 93 -4 102 8 81 14 -23 14 -23 20 -2 3 12
10 20 15 19 6 -2 10 0 11 5 3 22 0 29 -13 24 -16 -6 -26 11 -19 30 5 14 11 10
70 -50 26 -25 33 -41 34 -72 0 -22 4 -49 9 -60 6 -13 8 4 4 50 -3 39 -9 129
-14 200 -15 203 -29 375 -36 431 -6 50 -5 52 25 67 l31 15 1 -31 c0 -18 2 -45
4 -62 15 -123 22 -211 19 -215 -3 -2 -16 9 -29 25 -13 17 -24 25 -25 19 0 -7
14 -27 30 -44 28 -30 31 -40 37 -126 4 -68 3 -94 -5 -94 -18 0 -14 -35 6 -53
22 -20 33 -22 28 -4 -3 6 -7 61 -11 120 -4 85 -3 108 7 106 45 -6 69 2 78 26
11 30 56 35 63 8 4 -16 5 -17 6 -1 1 15 12 17 97 13 88 -3 97 -2 101 16 5 19
33 27 33 10 0 -13 104 -5 130 9 11 6 24 9 29 6 4 -3 17 1 27 9 10 8 31 15 45
15 41 0 92 20 112 43 13 15 32 22 60 23 72 3 165 20 181 33 8 7 25 14 38 15
61 7 108 19 114 27 3 5 17 9 32 9 15 1 38 7 52 15 14 8 35 14 48 15 12 0 33 6
45 14 33 20 95 28 257 31 80 2 181 8 225 14 85 11 133 10 152 -2 7 -4 24 -5
38 -1 41 10 70 -2 73 -31 2 -30 -15 -32 -60 -9 -24 12 -36 13 -54 5 -13 -6
-24 -15 -24 -21 0 -5 -11 -10 -24 -10 -14 0 -28 -5 -31 -11 -12 -18 5 -24 27
-10 16 10 22 10 28 1 6 -9 26 -11 76 -5 123 13 197 12 232 -4 17 -8 32 -18 32
-23 0 -4 17 -8 38 -8 26 0 45 -7 57 -20 10 -11 24 -20 32 -20 11 0 13 797 13
4870 l0 4870 -9600 0 -9600 0 0 -7150z m10805 4826 c30 -30 34 -82 8 -102 -19
-14 -83 -19 -83 -6 0 4 5 13 10 18 8 8 -3 22 -35 48 -41 34 -44 39 -29 50 9 7
36 13 60 15 35 1 49 -3 69 -23z m649 -233 c29 -5 35 -8 22 -15 -9 -5 -16 -15
-16 -22 0 -8 -7 -17 -16 -20 -11 -4 -14 -13 -10 -30 5 -22 2 -25 -35 -31 -23
-4 -45 -15 -52 -26 -6 -10 -17 -19 -24 -19 -16 0 -17 12 -1 28 9 9 9 17 -1 36
-11 20 -10 28 5 52 32 52 45 63 67 58 12 -3 39 -8 61 -11z m1826 -1035 c0 -4
-8 -8 -19 -8 -10 0 -35 -16 -55 -35 -21 -19 -41 -33 -46 -30 -13 8 -63 -62
-57 -79 10 -24 -26 -54 -68 -57 -37 -4 -40 -2 -40 22 -1 28 -41 79 -62 79 -7
0 -24 10 -38 22 l-24 21 26 14 c15 8 48 17 73 20 25 4 59 14 75 23 23 13 54
17 133 17 56 -1 102 -4 102 -9z m-3216 -324 c23 -9 20 -28 -6 -39 -17 -7 -24
-20 -26 -47 -2 -26 -8 -38 -19 -38 -9 0 -13 -6 -9 -15 3 -8 9 -21 12 -29 3 -8
-6 -22 -20 -34 -29 -22 -34 -42 -11 -42 8 0 15 -7 15 -15 0 -8 7 -15 15 -15
10 0 15 11 15 35 0 37 16 47 27 18 4 -10 12 -22 20 -26 20 -12 16 -25 -9 -29
-19 -2 -23 -9 -23 -39 -1 -46 -19 -69 -56 -69 -16 0 -29 -4 -29 -10 0 -5 -14
-10 -31 -10 -17 0 -42 -9 -56 -20 -32 -25 -50 -25 -92 1 -18 11 -56 23 -84 26
-37 5 -58 14 -77 32 -14 14 -43 35 -65 46 -22 11 -50 32 -63 48 -13 15 -30 27
-38 27 -9 0 -14 11 -14 30 0 28 -2 30 -37 30 -21 0 -51 -7 -66 -15 -31 -16
-38 -14 -104 31 -58 39 -115 32 -208 -26 -48 -30 -125 -103 -125 -119 0 -12
-2 -13 -40 -16 -14 -1 -44 -5 -68 -9 -48 -9 -76 4 -124 56 l-28 29 19 52 c23
67 79 127 106 116 22 -8 111 -1 135 11 8 4 34 11 57 15 36 6 44 4 50 -12 13
-38 20 -40 82 -27 33 6 64 15 70 18 21 13 151 18 151 6 0 -7 7 -9 16 -6 11 4
18 -1 21 -14 3 -11 9 -17 14 -14 5 3 18 0 29 -6 36 -19 114 -16 146 7 36 24
66 37 79 33 48 -13 265 -12 282 2 7 5 17 7 22 3 6 -3 21 5 34 17 19 19 28 22
41 13 13 -8 20 -6 31 9 8 10 12 23 9 27 -6 10 8 12 30 3z m1444 -153 c8 -4 12
-12 10 -17 -1 -5 7 -10 20 -12 12 -2 20 -7 17 -12 -3 -4 6 -11 20 -14 14 -4
25 -13 25 -20 0 -7 26 -27 58 -42 31 -16 63 -34 70 -41 7 -7 34 -22 59 -33 50
-22 124 -78 162 -124 14 -15 30 -34 38 -41 10 -11 10 -15 -1 -24 -11 -9 -16
-5 -25 18 -14 33 -58 76 -121 118 -161 107 -191 120 -204 88 -4 -12 0 -14 18
-9 18 4 49 -11 132 -68 60 -40 113 -83 119 -96 5 -12 13 -22 17 -22 5 0 8 -4
8 -8 0 -9 -3 -10 -58 -13 -23 -1 -31 -6 -28 -16 7 -18 -9 -17 -24 2 -20 24
-129 87 -139 80 -6 -3 -9 7 -8 22 2 26 0 28 -32 25 -18 -1 -40 3 -48 9 -11 10
-20 6 -43 -22 -41 -48 -37 -31 15 57 25 41 45 79 45 82 0 4 -19 7 -42 7 -38 0
-48 -6 -98 -55 -32 -33 -53 -62 -52 -72 2 -10 -2 -18 -8 -18 -6 0 -15 -11 -20
-25 -5 -14 -16 -25 -24 -25 -9 0 -13 -6 -10 -15 6 -15 -34 -95 -49 -95 -4 0
-5 -10 -2 -22 6 -17 4 -20 -9 -15 -11 5 -16 1 -16 -13 0 -11 -5 -20 -11 -20
-6 0 -9 -6 -6 -13 3 -8 -10 -30 -29 -51 -19 -21 -34 -48 -34 -62 0 -13 -4 -24
-10 -24 -5 0 -10 -6 -10 -13 0 -8 -9 -25 -20 -38 -31 -36 -107 -155 -117 -181
-6 -17 -9 -4 -14 52 -3 41 -9 90 -14 109 l-8 33 32 -17 c18 -9 34 -15 34 -13
1 2 8 14 15 27 12 20 11 25 -7 42 -38 36 -55 81 -55 151 -1 45 -5 68 -13 68
-30 0 -44 -16 -59 -66 -14 -49 -18 -54 -44 -54 -35 0 -37 7 -29 86 8 76 16 88
72 102 32 9 59 28 111 82 85 87 126 102 187 71 49 -26 50 -26 80 1 141 126
191 188 153 188 -8 0 -11 6 -8 15 7 17 13 18 32 6z m68 -290 c-18 -20 -21 -41
-6 -41 20 0 9 -40 -30 -109 -22 -39 -40 -73 -40 -76 0 -3 -9 -16 -21 -28 -11
-12 -30 -43 -41 -69 -11 -27 -24 -48 -29 -48 -5 0 -9 -9 -9 -21 0 -11 -4 -17
-10 -14 -5 3 -10 -1 -10 -10 0 -14 -32 -69 -50 -85 -3 -3 -10 -14 -16 -25 -7
-12 -22 -20 -38 -20 -14 1 -26 -2 -26 -5 0 -4 -9 -16 -20 -28 -12 -12 -16 -23
-10 -27 19 -12 11 -69 -13 -92 -13 -11 -47 -69 -76 -127 -29 -58 -57 -106 -62
-106 -5 0 -9 -9 -9 -21 0 -11 -7 -27 -15 -35 -20 -20 -22 -12 -28 103 -4 85
-3 93 19 116 13 14 27 27 31 28 9 4 55 78 87 142 11 20 23 37 28 37 4 0 8 6 8
13 0 17 49 75 50 59 0 -7 5 -10 11 -6 8 5 8 8 0 14 -9 5 -9 13 0 33 12 26 39
45 39 26 0 -6 5 -7 10 -4 8 5 8 11 0 20 -11 13 0 42 42 105 9 14 29 48 45 76
90 162 118 203 134 198 11 -3 24 7 39 33 14 23 25 33 27 25 3 -7 -2 -21 -11
-31z m104 -73 c0 -6 3 -9 6 -5 4 3 12 1 19 -6 7 -7 23 -19 35 -27 13 -8 43
-30 67 -47 24 -18 45 -33 48 -33 9 0 45 -40 45 -50 0 -5 6 -10 13 -10 7 0 24
-10 37 -22 14 -13 31 -23 40 -23 33 0 32 -94 -1 -430 -6 -55 -11 -107 -12
-115 -1 -9 -12 -26 -24 -40 -13 -13 -23 -27 -23 -31 0 -3 -20 -4 -43 -2 -47 6
-89 -10 -121 -46 -23 -26 -36 -27 -36 -3 -1 16 -1 16 -14 -1 -9 -12 -30 -19
-64 -21 -27 -2 -59 -9 -71 -15 -24 -13 -41 -7 -41 15 0 8 -5 14 -10 14 -11 0
-16 10 -55 120 -54 149 -68 181 -96 220 l-29 40 34 62 c19 35 51 92 71 128 20
36 43 82 52 103 9 20 20 37 25 37 4 0 8 6 8 13 0 6 22 50 50 97 35 61 55 86
70 87 11 1 20 -3 20 -9z m-834 -104 c-3 -9 -6 -22 -6 -30 0 -8 -6 -11 -15 -8
-10 4 -18 -3 -24 -19 -16 -40 -62 -77 -97 -77 -32 0 -46 -10 -57 -42 -5 -14
-1 -15 26 -7 39 11 47 11 47 1 0 -12 -90 -44 -130 -47 -8 0 -26 -4 -40 -9
l-25 -9 22 -8 c23 -8 22 -39 -1 -39 -6 0 -17 -15 -24 -32 -9 -25 -15 -30 -21
-19 -7 11 -14 10 -39 -5 -17 -10 -29 -22 -26 -26 6 -9 -30 -47 -457 -479 -236
-238 -270 -269 -298 -269 -23 0 -41 -10 -71 -41 -22 -23 -40 -45 -40 -50 0 -5
-5 -9 -11 -9 -14 0 -39 -26 -39 -41 0 -7 -7 -20 -16 -30 -16 -17 -17 -17 -35
4 -10 12 -18 17 -19 11 0 -7 -11 -15 -24 -18 -13 -3 -33 -21 -45 -38 -18 -29
-19 -34 -6 -44 13 -10 13 -13 -2 -25 -15 -12 -16 -12 -9 1 7 11 4 11 -9 -2
-11 -10 -15 -23 -11 -34 6 -16 8 -15 27 4 11 12 25 22 30 22 6 0 8 7 5 16 -8
20 4 41 13 25 5 -7 19 -5 46 9 26 13 41 16 44 9 4 -12 -84 -99 -101 -99 -33 0
-76 -72 -48 -82 6 -2 -35 -49 -92 -104 -57 -56 -158 -160 -225 -230 -66 -71
-168 -177 -225 -236 -162 -166 -402 -419 -410 -431 -4 -6 -5 -14 -2 -19 2 -4
-5 -12 -16 -18 -11 -6 -20 -16 -20 -22 0 -7 5 -6 15 2 10 9 15 9 15 1 0 -10
-14 -15 -33 -12 -13 2 -57 -53 -52 -66 2 -7 -7 -16 -23 -19 -15 -4 -33 -11
-40 -17 -9 -7 -16 -7 -24 1 -8 8 -17 8 -30 1 -10 -5 -28 -9 -41 -8 -70 7 -109
-29 -88 -84 5 -13 8 -41 6 -62 -2 -21 1 -48 7 -59 7 -13 7 -21 1 -23 -5 -2 -8
-25 -7 -51 2 -26 1 -40 -2 -32 -4 8 -14 24 -23 34 -9 11 -10 16 -3 12 6 -4 12
-4 12 1 0 4 -11 13 -25 19 -24 12 -24 12 -18 -32 6 -48 6 -48 -30 -35 -15 6
-27 20 -30 38 -3 15 -9 40 -12 54 -6 21 -3 27 14 32 23 6 29 27 7 27 -22 0 -8
37 25 64 15 13 25 27 22 30 -4 3 -28 6 -54 6 -39 0 -54 -5 -80 -30 -18 -16
-36 -27 -40 -25 -3 3 -21 0 -37 -6 -27 -9 -34 -8 -53 10 -29 27 -62 27 -126
-1 -62 -28 -63 -30 -57 -195 4 -109 3 -123 -12 -123 -9 0 -18 9 -21 21 -4 16
-8 17 -14 7 -5 -7 -6 -21 -3 -30 3 -11 0 -18 -8 -18 -22 -1 -75 -54 -82 -83
-6 -23 -3 -29 21 -38 15 -5 37 -8 49 -5 14 4 28 -1 39 -14 10 -11 36 -23 57
-26 34 -6 55 -24 27 -24 -7 0 -9 -9 -5 -24 3 -12 3 -26 -1 -29 -3 -4 -7 -19
-9 -34 -1 -16 -21 -98 -44 -183 -46 -169 -60 -238 -53 -257 3 -7 -6 -45 -20
-85 -13 -40 -30 -110 -37 -155 -7 -46 -15 -81 -19 -79 -3 2 -7 -17 -8 -43 -3
-55 -28 -121 -46 -122 -6 0 -34 0 -62 0 -31 1 -62 -5 -81 -16 -61 -35 -114
-73 -114 -84 0 -5 4 -8 9 -5 5 3 2 -22 -5 -57 -7 -34 -13 -93 -14 -130 0 -44
-5 -73 -14 -82 -7 -8 -16 -11 -20 -8 -3 4 -6 -6 -6 -21 0 -19 -4 -27 -13 -23
-10 4 -13 -4 -12 -28 1 -18 5 -37 9 -43 4 -7 4 -27 0 -47 -4 -24 -3 -35 6 -35
7 0 9 8 5 19 -3 11 -1 22 4 25 5 4 12 -3 16 -14 3 -11 15 -20 25 -20 21 0 52
-38 43 -53 -3 -6 -1 -7 5 -3 6 3 13 2 17 -4 3 -5 1 -10 -6 -10 -7 0 -9 -3 -6
-7 4 -3 -2 -16 -13 -28 l-21 -22 28 5 c25 5 26 3 15 -11 -10 -11 -11 -21 -3
-35 5 -10 7 -29 4 -42 -6 -22 -7 -23 -14 -4 -7 17 -8 17 -8 -5 -1 -19 -5 -23
-26 -19 -14 3 -25 2 -25 -2 0 -4 -3 -22 -6 -39 -4 -20 -3 -31 5 -31 6 0 11 9
11 20 0 11 5 20 11 20 5 0 7 5 4 10 -3 6 -1 10 5 10 6 0 15 -10 21 -22 9 -22
9 -21 6 4 -3 16 0 28 4 28 5 0 9 -9 9 -20 0 -26 11 -25 56 5 40 27 54 31 54
14 0 -7 10 -9 26 -5 24 6 25 5 12 -12 -7 -10 -30 -39 -51 -64 -20 -24 -44 -53
-53 -64 -17 -21 -16 -18 10 38 9 21 22 41 29 45 7 4 18 16 26 26 13 17 12 18
-14 11 -16 -4 -40 -13 -54 -20 -14 -8 -31 -14 -38 -14 -22 0 -42 -107 -31
-161 2 -8 -2 -13 -9 -12 -8 2 -9 -7 -1 -34 5 -20 8 -51 6 -70 -2 -18 0 -33 4
-33 12 0 9 -35 -4 -48 -9 -9 -9 -12 0 -12 16 0 15 -57 0 -63 -7 -3 -3 -6 10
-6 14 -1 22 -7 22 -18 0 -12 3 -14 8 -7 11 18 92 29 92 12 0 -11 2 -11 9 1 5
7 7 21 4 30 -3 14 36 71 49 71 3 0 8 -10 10 -23 5 -28 -20 -57 -32 -37 -6 10
-9 10 -15 0 -5 -8 -1 -18 9 -25 14 -11 23 -10 46 2 17 8 34 12 40 8 5 -3 10 1
10 9 0 8 -8 16 -17 18 -11 3 -5 6 14 9 28 5 31 3 22 -12 -10 -19 5 -37 16 -19
3 5 19 10 36 10 16 0 29 5 29 10 0 6 5 10 11 10 5 0 7 -5 3 -12 -4 -7 -3 -8 5
-4 15 10 71 17 138 20 29 1 58 7 65 14 18 18 28 15 28 -9 0 -18 2 -19 15 -9
12 10 15 10 15 -4 0 -9 4 -16 10 -16 5 0 9 3 9 8 -4 25 3 41 15 36 17 -6 30
11 23 31 -5 11 -13 11 -53 -1 -26 -8 -65 -14 -86 -14 -24 0 -37 -4 -33 -10 4
-6 -18 -10 -57 -10 -35 0 -68 -4 -73 -9 -6 -5 -19 -5 -30 -1 -19 7 -18 8 5 14
14 3 108 19 210 36 102 17 201 35 220 40 51 14 69 12 40 -5 -14 -8 -32 -15
-40 -15 -26 -1 -41 -16 -34 -34 5 -14 9 -15 15 -4 7 10 9 10 9 -2 1 -12 3 -11
11 3 12 20 25 22 27 5 8 -62 31 -464 37 -623 l7 -201 -57 -1 c-63 -1 -73 -6
-56 -26 9 -12 7 -13 -14 -9 -14 2 -25 9 -25 14 0 10 -25 38 -33 38 -12 0 -16
-34 -5 -41 18 -12 9 -16 -47 -23 -34 -4 -45 -3 -35 3 8 6 11 13 7 17 -11 12
-65 15 -72 4 -3 -5 0 -8 7 -5 18 7 42 -10 34 -24 -4 -6 -13 -8 -19 -4 -7 4
-21 8 -32 8 -11 0 -27 5 -34 10 -8 5 -41 9 -73 10 -54 2 -58 0 -58 -22 0 -20
-5 -23 -42 -24 -85 -3 -124 -6 -159 -13 -28 -5 -38 -3 -43 9 -7 19 -26 20 -26
0 0 -8 -3 -15 -7 -16 -31 -3 -50 -7 -66 -14 -13 -5 -21 1 -33 26 -15 34 -15
34 -9 4 4 -16 3 -27 -1 -23 -4 4 -13 3 -21 -3 -10 -9 -13 -7 -13 7 -1 18 -1
18 -14 1 -14 -18 -36 -19 -48 -2 -4 6 -13 2 -22 -10 -15 -20 -15 -19 -16 5 -1
22 -2 23 -9 6 -7 -19 -8 -19 -15 0 -8 18 -9 18 -17 -4 -5 -13 -6 -29 -3 -35 3
-7 -4 -1 -15 13 -11 14 -21 20 -21 13 0 -7 -12 -10 -30 -8 -16 2 -30 0 -30 -5
0 -6 -4 -10 -10 -10 -5 0 -7 8 -3 18 6 16 5 16 -13 0 -12 -11 -29 -14 -48 -11
-15 3 -31 1 -35 -4 -10 -17 -81 -24 -81 -9 0 8 -7 19 -15 26 -13 10 -15 9 -15
-10 0 -21 -1 -22 -24 -7 -22 15 -24 14 -37 -9 -28 -54 37 -148 96 -137 17 3
36 10 43 16 8 6 12 6 12 -2 0 -17 28 -13 39 7 7 11 10 13 11 3 0 -11 3 -11 15
-1 10 9 26 9 60 2 38 -8 45 -7 41 4 -3 7 -1 16 5 19 5 4 9 3 8 -2 -1 -4 -1
-19 0 -32 1 -21 5 -23 40 -19 32 3 41 0 45 -14 5 -21 33 -14 53 11 6 9 15 13
18 9 4 -4 17 -1 28 7 14 10 25 11 39 4 12 -6 18 -6 18 1 0 5 5 10 11 10 5 0 8
-4 4 -9 -3 -5 -1 -12 4 -15 5 -3 11 1 15 9 3 8 11 15 17 15 9 0 9 -3 0 -14 -9
-10 -8 -16 4 -26 9 -7 19 -10 22 -6 4 4 1 11 -7 16 -10 7 -11 10 -2 10 6 0 12
6 12 14 0 9 7 12 20 9 11 -3 20 0 20 6 0 12 31 3 43 -13 4 -7 9 -3 13 11 6 20
50 41 62 28 3 -3 0 -5 -6 -5 -7 0 -12 -4 -12 -9 0 -4 12 -6 26 -3 21 4 25 2
19 -8 -6 -10 -4 -12 8 -7 11 4 17 1 17 -7 0 -8 -6 -16 -12 -19 -7 -2 -10 -8
-6 -12 5 -5 16 -1 26 8 10 10 24 17 30 17 6 0 18 10 26 22 9 13 16 17 16 9 0
-11 3 -11 17 0 9 8 26 15 37 16 12 0 31 4 44 8 16 6 22 3 22 -9 0 -10 8 -16
21 -16 16 0 19 4 14 21 -7 21 -7 21 25 3 31 -19 32 -19 49 3 11 13 23 18 30
13 7 -4 31 -3 52 1 46 11 79 -2 77 -29 -3 -39 2 -54 17 -48 8 3 15 1 15 -5 0
-14 -54 -33 -58 -20 -2 6 -8 11 -13 11 -6 0 -8 -3 -6 -7 3 -5 -1 -14 -9 -21
-12 -11 -14 -9 -14 8 0 11 -6 20 -14 20 -8 0 -17 6 -19 13 -4 7 -6 6 -6 -4 -1
-14 -10 -16 -49 -12 -26 2 -61 -1 -77 -8 -17 -7 -34 -13 -38 -13 -5 -1 -15
-10 -23 -21 -10 -13 -17 -16 -22 -9 -8 13 -72 27 -72 16 0 -4 -14 -13 -32 -20
-28 -10 -35 -9 -52 7 -18 16 -23 17 -34 5 -7 -8 -21 -14 -32 -14 -10 0 -22 -4
-25 -10 -3 -5 -20 -10 -36 -10 -18 0 -28 4 -24 10 4 7 -2 7 -19 1 -40 -16 -64
-10 -59 14 4 19 4 19 -11 1 -8 -10 -20 -15 -25 -11 -6 3 -14 -1 -17 -10 -5
-11 -10 -13 -19 -5 -7 6 -20 8 -29 4 -9 -3 -24 -3 -33 0 -15 6 -15 8 -3 16 9
6 10 10 3 10 -6 0 -15 -5 -19 -11 -4 -8 -9 -7 -15 2 -7 11 -9 11 -9 -2 0 -18
-42 -31 -97 -31 -18 -1 -33 -4 -33 -9 0 -10 -30 0 -50 17 -16 13 -44 14 -56 1
-4 -4 -12 1 -19 10 -15 21 -50 10 -41 -13 4 -11 2 -15 -8 -11 -8 3 -17 0 -20
-8 -3 -8 -13 -14 -23 -14 -10 0 -35 -2 -56 -5 -27 -3 -40 0 -44 10 -4 10 -17
14 -44 11 -42 -4 -43 -4 -54 70 -8 51 1 87 21 79 8 -3 14 1 14 9 0 8 -5 15
-10 15 -6 0 1 23 15 51 26 50 31 114 17 192 -6 37 -17 34 -36 -10 -9 -21 -24
-51 -34 -68 -48 -79 -133 -382 -118 -421 3 -8 -1 -17 -9 -20 -7 -3 -16 -19
-19 -35 -3 -16 -9 -42 -12 -59 -3 -18 -1 -30 5 -30 6 0 11 9 11 20 0 11 5 20
10 20 6 0 10 10 11 23 0 12 3 16 6 10 6 -17 23 -16 23 1 0 21 23 35 76 45 45
9 47 8 29 -6 -20 -15 -20 -15 2 -8 19 5 22 2 22 -22 -1 -15 1 -50 4 -78 2 -27
1 -71 -3 -97 -4 -31 -3 -45 3 -41 7 4 8 -1 3 -13 -5 -10 -12 -34 -18 -52 -11
-40 -20 -42 -11 -2 5 25 3 29 -11 24 -17 -7 -23 11 -6 21 15 9 12 35 -3 35 -8
0 -13 13 -13 35 0 30 3 34 19 29 18 -6 18 -5 0 22 -15 23 -19 25 -21 10 -2
-10 -10 -15 -17 -12 -8 3 -16 0 -18 -7 -2 -7 -2 -1 0 11 3 17 0 23 -9 19 -17
-6 -13 -53 6 -73 18 -18 20 -33 6 -54 -6 -10 -10 -11 -10 -2 0 6 -8 13 -17 13
-17 1 -17 2 0 6 9 2 17 11 17 19 0 18 -7 18 -38 -4 -60 -42 -64 -39 -57 33 5
45 4 65 -4 65 -7 0 -11 -22 -12 -57 -2 -104 -2 -105 -38 -125 -18 -11 -40 -17
-47 -14 -8 3 -25 1 -38 -4 -15 -5 -27 -5 -34 2 -8 8 -16 7 -27 -2 -14 -11 -18
-11 -25 -1 -6 10 -18 11 -52 4 -30 -7 -49 -6 -61 1 -12 8 -22 8 -34 0 -14 -9
-24 -7 -45 9 -21 16 -30 18 -41 8 -8 -6 -22 -9 -31 -5 -9 3 -22 2 -29 -4 -14
-11 -96 -11 -114 1 -6 4 -18 4 -27 1 -9 -3 -23 -1 -30 5 -10 9 -16 9 -21 1 -4
-7 -29 -10 -60 -9 -36 2 -61 -3 -78 -14 -22 -14 -26 -14 -31 -1 -4 12 -9 12
-25 2 -15 -9 -28 -9 -57 0 -24 7 -42 8 -49 2 -7 -6 -15 -7 -18 -3 -10 10 -269
5 -279 -5 -5 -5 -31 -7 -58 -4 -28 2 -50 0 -50 -5 0 -5 -16 -7 -35 -5 -19 2
-35 8 -35 12 0 4 -15 5 -32 1 -40 -8 -192 -6 -207 3 -6 4 -11 3 -11 -3 0 -7
-8 -7 -25 -1 -13 5 -56 10 -95 11 -39 1 -73 6 -76 10 -7 12 -64 11 -64 -1 0
-16 -37 -11 -79 10 -46 25 -83 19 -106 -16 -16 -25 -70 -34 -77 -13 -6 18 -68
1 -69 -19 0 -14 -2 -13 -8 3 -5 11 -6 24 -3 29 3 5 5 21 6 35 1 25 4 26 80 33
53 5 83 12 88 22 6 11 29 13 118 10 65 -3 117 -1 128 5 9 6 13 11 7 11 -14 1
-165 27 -195 34 -14 3 -46 8 -72 11 -39 5 -48 10 -48 26 0 18 -11 24 -34 20
-6 -1 -39 5 -75 13 -88 20 -197 27 -243 17 l-38 -9 0 42 c0 22 5 48 11 56 9
13 10 12 5 -2 -3 -10 -1 -18 4 -18 16 0 11 30 -5 36 -8 4 -15 12 -15 20 0 10
-6 11 -25 4 -21 -8 -25 -7 -25 10 0 11 -3 20 -7 20 -75 5 -106 11 -139 26 -21
10 -41 21 -44 24 -9 12 -197 30 -304 30 -59 0 -108 4 -111 10 -12 19 47 30
166 30 117 0 119 0 107 20 -9 14 -24 20 -49 20 -19 0 -39 3 -43 7 -4 5 -21 8
-37 8 -45 0 -38 19 11 27 24 4 48 14 52 23 5 9 23 15 42 15 19 0 39 7 47 16 8
10 23 14 41 12 15 -3 28 -1 28 4 0 4 -5 8 -11 8 -19 0 -3 25 17 26 28 1 56 15
76 37 21 24 22 29 6 45 -9 9 -8 12 4 12 9 0 18 9 21 20 3 11 14 20 24 20 19 0
69 47 55 52 -11 5 -128 1 -219 -8 -55 -4 -83 -3 -83 3 0 10 45 25 87 27 25 2
55 25 47 37 -3 5 0 9 6 9 16 0 40 26 32 34 -3 4 0 11 8 16 8 5 12 10 10 12 -3
2 -18 11 -35 20 -35 20 -44 38 -18 38 11 0 23 3 26 7 10 9 -45 35 -65 30 -9
-3 -18 -1 -20 3 -5 12 -78 22 -78 10 0 -5 -8 -10 -17 -10 -17 1 -17 1 0 14 9
7 17 25 17 40 0 18 5 26 18 26 16 1 16 1 0 14 -13 10 -15 15 -6 24 12 12 1 17
-32 12 -17 -2 -40 -32 -34 -42 3 -5 1 -8 -5 -8 -5 0 -16 -3 -25 -6 -11 -4 -16
-1 -16 10 0 9 -11 18 -27 21 -16 4 -36 10 -45 16 -10 5 -35 9 -57 9 -22 0 -44
6 -51 15 -17 20 -80 20 -80 0 0 -18 -31 -20 -49 -2 -8 8 -49 13 -114 14 -56 2
-110 3 -119 3 -9 1 -22 8 -29 16 -6 8 -22 14 -36 14 -13 0 -54 6 -91 14 -37 8
-101 20 -142 27 -41 7 -79 15 -85 19 -5 4 -39 13 -75 20 -73 15 -100 26 -100
41 0 7 12 8 31 4 22 -5 29 -4 25 4 -9 14 0 14 39 -1 27 -9 49 -7 121 9 94 21
140 22 214 4 104 -26 133 -31 180 -31 34 0 52 -5 56 -14 9 -24 186 -38 208
-16 6 6 -7 12 -32 16 -23 4 -42 11 -42 17 0 18 -42 57 -62 57 -10 0 -18 5 -18
11 0 6 -9 8 -20 4 -14 -5 -20 -2 -20 9 0 22 -30 20 -31 -1 0 -11 -3 -13 -6 -5
-2 6 -16 12 -29 12 -13 0 -24 4 -24 10 0 5 -19 8 -42 6 -24 -2 -81 4 -128 14
-47 10 -148 23 -225 29 -163 13 -298 33 -340 50 -18 8 -95 15 -190 17 -190 6
-221 10 -229 30 -8 20 38 37 84 29 38 -6 396 -26 445 -25 16 0 32 6 36 12 5 7
26 9 62 5 52 -7 55 -6 50 13 -4 15 0 20 16 20 23 0 27 -10 10 -27 -15 -15 48
-48 111 -58 48 -8 289 -9 297 -1 3 3 11 2 18 0 7 -3 16 -1 20 5 3 6 -1 11 -9
11 -8 0 -19 6 -23 12 -4 7 -19 14 -33 16 -14 1 -32 3 -40 4 -8 1 -21 9 -27 19
-9 11 -30 18 -65 21 -29 2 -62 8 -73 12 -18 7 -18 6 -2 -4 9 -6 15 -15 12 -20
-3 -4 13 -11 36 -15 l41 -7 -27 -14 c-34 -18 -54 -18 -98 1 -19 8 -37 12 -40
8 -10 -9 -77 7 -77 19 0 6 8 16 17 23 15 11 14 14 -8 25 -13 7 -29 20 -35 28
-6 8 -20 16 -32 17 -11 0 -37 8 -59 17 -68 28 -216 67 -283 73 -36 4 -83 13
-105 20 -22 7 -62 19 -90 26 l-50 13 35 9 c52 13 174 8 214 -8 20 -8 45 -15
56 -15 11 0 20 -4 20 -10 0 -5 11 -10 24 -10 13 0 53 -9 88 -20 34 -11 64 -20
66 -20 8 0 -1 20 -19 38 -18 20 -18 23 -4 28 9 4 38 4 64 1 58 -7 79 3 54 24
-25 21 -87 38 -155 43 -32 2 -71 12 -90 23 -27 16 -41 18 -78 11 -73 -13 -232
-28 -242 -22 -5 3 -8 13 -6 22 3 18 30 20 308 21 66 1 90 4 80 11 -8 5 -10 10
-5 10 6 0 -10 10 -35 22 -49 24 -100 66 -100 81 0 12 237 2 253 -11 27 -22
102 -28 163 -14 69 15 205 9 239 -10 17 -10 42 -23 56 -29 l26 -12 -21 -25
c-27 -31 -58 -44 -126 -51 -40 -4 -54 -10 -52 -20 2 -11 -7 -13 -40 -8 -24 3
-51 2 -61 -2 -17 -6 -17 -8 3 -26 18 -17 37 -18 197 -17 188 2 213 5 213 28 0
8 9 14 20 14 11 0 20 5 20 11 0 7 9 9 21 6 26 -7 69 8 69 24 0 6 -13 16 -30
22 -38 15 -38 27 0 27 33 0 40 19 15 40 -23 19 -4 32 44 32 23 0 41 4 41 9 0
20 49 29 87 15 39 -13 192 -30 252 -27 18 1 38 -2 45 -7 21 -17 65 -20 71 -4
3 9 11 12 23 7 9 -4 23 -8 30 -8 6 0 12 -4 12 -9 0 -15 56 -8 96 11 31 16 36
21 22 26 -10 4 -18 15 -18 25 0 19 -25 34 -40 25 -5 -3 -14 4 -20 15 -6 11
-17 20 -25 20 -26 0 -17 37 10 44 14 4 25 11 25 16 0 6 6 10 14 10 8 0 16 6
19 13 3 9 13 8 40 -5 30 -14 37 -15 37 -4 0 8 15 16 33 20 36 7 94 -6 89 -19
-2 -5 1 -11 7 -13 6 -2 11 1 11 7 0 6 5 11 10 11 6 0 10 -6 10 -14 0 -13 41
-26 86 -26 24 0 63 17 75 33 3 4 12 1 19 -8 18 -22 32 -19 30 8 -4 40 0 49 15
43 8 -3 15 -2 15 3 0 5 12 12 26 15 37 10 19 24 -36 31 -26 3 -48 13 -54 22
-6 12 -10 13 -16 2 -7 -10 -19 -10 -65 1 -31 7 -58 17 -61 22 -3 4 -15 8 -27
8 -12 1 -47 9 -77 20 -30 11 -79 19 -108 20 -45 0 -55 3 -59 20 -3 11 -11 20
-18 20 -8 0 -43 13 -78 30 -48 22 -66 36 -71 55 -4 14 -7 28 -9 32 -1 3 5 7
13 9 29 4 70 24 70 33 0 5 -11 16 -25 25 -31 20 -33 40 -4 33 17 -5 20 -2 16
13 -3 11 1 24 9 31 11 9 14 9 14 0 0 -7 5 -9 10 -6 32 20 -27 95 -75 95 -28 0
-48 22 -39 44 4 10 17 16 38 15 30 -1 30 -1 6 -9 -14 -4 -19 -9 -12 -10 6 -1
15 -3 20 -4 4 -1 18 -10 32 -20 19 -14 21 -17 5 -12 -17 6 -17 4 4 -15 16 -15
26 -19 29 -11 5 15 29 16 34 0 4 -12 92 -13 111 -1 5 3 7 1 3 -5 -3 -6 -2 -13
4 -17 5 -3 10 -15 10 -26 0 -20 15 -26 25 -9 10 16 35 12 35 -6 0 -11 6 -14
20 -9 13 4 27 -1 43 -17 13 -13 37 -24 53 -24 38 -2 184 -32 162 -33 -30 -2
-20 -18 13 -23 18 -3 36 1 44 9 20 19 78 16 104 -7 34 -29 87 -43 136 -36 24
4 46 3 48 -1 5 -8 117 -8 217 1 54 4 131 31 184 64 37 23 39 25 21 38 -10 8
-35 17 -54 20 -20 4 -45 13 -56 20 -11 8 -33 14 -49 14 -16 0 -37 6 -45 13
-24 21 -127 55 -221 75 -81 16 -85 19 -90 47 -4 25 -13 32 -70 52 -36 13 -87
34 -115 47 -77 36 -115 49 -122 43 -3 -4 -6 -19 -7 -34 -1 -23 -6 -29 -29 -31
-15 -2 -27 0 -27 5 0 16 -62 35 -113 35 -112 -1 -114 -1 -95 -16 21 -16 14
-26 -13 -19 -13 4 -19 12 -16 23 4 14 -1 16 -32 10 -20 -4 -55 -13 -78 -20
-37 -11 -45 -11 -60 3 -25 22 -71 38 -75 26 -2 -5 -21 -12 -43 -15 -22 -3 -35
-2 -29 3 6 4 13 16 17 25 4 12 -1 18 -21 22 -27 5 -121 10 -154 7 -23 -1 -13
-27 13 -34 50 -13 -3 -48 -70 -46 -20 0 -67 -1 -104 -4 -46 -3 -72 -1 -80 7
-8 9 -37 12 -91 9 -43 -2 -76 0 -74 4 2 4 12 25 21 46 12 25 24 37 37 37 35 0
22 16 -14 17 -21 1 -42 10 -59 27 -14 14 -35 26 -47 26 -12 0 -20 7 -21 18 0
15 -2 14 -15 -4 -13 -19 -19 -21 -53 -12 -25 6 -42 18 -50 34 -6 15 -31 33
-62 47 -48 21 -51 24 -36 39 24 24 21 63 -5 80 -28 17 -119 45 -173 54 -51 7
-184 49 -256 80 -31 13 -60 24 -65 24 -21 1 -105 48 -143 79 -31 25 -38 37
-29 43 10 6 10 10 -2 18 -13 8 -13 10 1 10 23 0 30 -11 17 -27 -10 -12 -7 -13
18 -7 16 4 32 12 36 18 8 12 73 9 121 -5 18 -5 66 -14 107 -20 41 -6 86 -12
100 -15 14 -3 72 -9 130 -14 58 -5 132 -14 165 -21 33 -6 81 -12 107 -13 30
-2 55 -9 68 -21 18 -16 24 -17 41 -6 17 10 24 10 37 -1 37 -29 41 -35 30 -46
-8 -8 0 -13 30 -18 23 -4 42 -10 42 -14 0 -4 15 -13 33 -20 17 -6 40 -16 49
-21 10 -5 26 -9 35 -9 10 0 40 -11 67 -25 42 -21 62 -25 135 -24 60 1 75 4 51
8 l-35 7 38 5 c20 3 41 1 47 -5 7 -7 15 -3 24 10 8 10 18 16 21 12 15 -15 45
13 45 42 0 15 6 30 13 33 9 3 9 9 -1 27 -12 19 -12 24 0 31 17 11 38 11 38 0
0 -9 74 -26 104 -23 11 1 27 -5 38 -14 10 -10 18 -12 18 -7 0 6 20 13 43 14
34 3 44 1 43 -11 -1 -14 8 -17 122 -37 25 -4 36 -1 47 13 7 11 26 19 41 19 29
0 59 34 37 42 -7 3 -13 11 -13 19 0 8 -5 14 -11 14 -8 0 -7 6 2 16 16 20 13
71 -7 101 -18 29 -18 33 6 33 12 0 20 7 20 16 0 12 -5 14 -17 9 -10 -4 -40
-12 -68 -18 -27 -6 -53 -14 -56 -19 -3 -5 -39 -14 -79 -19 -40 -5 -84 -16 -96
-24 -26 -17 -50 -19 -58 -6 -7 10 95 71 118 71 9 0 20 9 26 20 6 11 30 29 53
40 50 24 74 39 101 62 14 13 39 18 95 19 42 0 88 1 104 1 15 1 27 7 27 14 0
15 78 54 108 54 15 0 22 6 22 18 0 10 12 28 26 41 l26 22 27 -28 c24 -25 30
-27 66 -20 84 17 103 19 109 8 17 -27 96 -2 96 30 0 5 9 9 20 9 10 0 23 8 28
17 11 18 47 21 127 9 28 -4 56 -8 63 -8 7 -1 10 -9 6 -20 -7 -24 8 -23 31 2
19 22 30 19 30 -8 0 -13 8 -16 44 -13 27 2 47 -2 52 -10 5 -9 16 -10 41 -3 23
7 46 6 76 -2 36 -11 42 -11 42 1 0 9 -9 15 -21 15 -18 0 -19 2 -9 15 10 12 10
15 0 15 -8 0 -5 12 9 36 12 19 21 40 21 45 0 6 7 17 15 25 8 9 15 29 15 46 0
27 2 30 25 24 24 -6 25 -5 26 51 1 53 2 55 12 31 13 -34 27 -36 27 -4 0 13 3
33 7 43 5 14 10 7 19 -27 9 -34 12 -39 13 -18 1 21 5 25 20 21 13 -3 24 2 33
16 7 12 22 21 34 21 22 0 39 24 28 41 -3 5 -12 9 -20 9 -9 0 -14 10 -14 28 0
27 0 27 -18 -8 -24 -49 -44 -45 -46 8 -2 36 1 45 18 52 12 4 26 3 34 -2 9 -8
12 -4 12 15 0 35 27 42 57 15 63 -58 72 -71 62 -90 -5 -10 -16 -18 -24 -18
-21 0 -18 -13 6 -29 18 -10 19 -15 8 -22 -12 -7 -12 -11 1 -23 13 -13 26 -14
80 -5 36 5 80 15 98 21 28 11 32 16 32 48 0 19 -7 57 -15 85 -14 45 -14 51 0
61 8 6 15 16 15 21 0 6 21 14 47 18 50 7 73 -7 73 -47 0 -10 4 -18 9 -18 5 0
12 -9 16 -19 8 -26 32 -17 51 20 8 16 21 29 29 29 8 0 15 5 15 11 0 8 16 10
50 6 55 -7 54 -9 50 76 -1 31 2 37 18 37 11 0 23 -6 25 -12 4 -10 8 -10 15 0
5 8 25 13 48 12 87 -4 114 0 114 16 0 22 24 12 28 -12 7 -48 13 -62 29 -68 9
-4 20 -2 23 5 5 8 22 6 59 -8 51 -17 53 -17 66 0 9 13 20 17 34 12 16 -5 29 2
51 23 16 16 31 25 33 19 2 -6 16 -5 40 4 34 12 50 29 27 29 -15 0 -12 29 4 45
12 12 15 11 19 -5 7 -26 27 -26 27 0 0 27 16 25 24 -2 l7 -23 9 23 c6 14 18
22 32 22 21 0 56 36 45 47 -3 2 -21 -3 -41 -11 -34 -14 -36 -14 -36 5 0 10 5
19 11 19 6 0 9 6 6 13 -2 6 0 20 5 30 7 14 5 24 -8 38 -17 18 -16 19 14 19 18
0 32 -5 32 -10 0 -7 22 -10 58 -8 56 3 57 4 57 33 0 29 -1 29 -46 26 -44 -2
-47 -1 -52 27 -8 41 2 72 24 72 10 0 21 5 24 10 3 6 19 10 34 10 20 0 30 6 34
20 4 15 14 20 37 20 27 0 32 3 27 19 -3 12 3 27 14 37 18 16 18 15 9 -15 -10
-34 2 -50 24 -31 9 7 15 7 18 1 7 -21 73 10 96 45 22 34 62 47 62 21 0 -8 17
-19 37 -25 36 -11 38 -10 76 29 30 30 42 37 48 27 7 -10 11 -10 21 0 9 9 9 12
-5 12 -20 0 -23 29 -4 34 76 24 141 1 119 -41 -10 -18 -8 -22 21 -34 31 -13
37 -15 56 -18 5 0 13 -11 16 -22 5 -16 9 -18 15 -9 4 7 13 9 19 6 18 -11 13
-44 -9 -56 -17 -9 -22 -7 -31 17 -10 27 -11 27 -25 9 -8 -11 -14 -23 -14 -27
0 -4 -11 -10 -25 -13 -38 -10 -31 -39 24 -97 42 -44 53 -51 75 -45 14 3 26 11
26 17 0 6 7 6 20 -1 11 -6 20 -17 20 -25 0 -11 12 -15 40 -15 29 0 40 4 40 15
0 8 -5 15 -10 15 -6 0 -5 6 2 14 7 8 15 14 18 13 3 -1 15 5 28 13 23 16 32 70
11 70 -8 0 -10 21 -7 70 6 77 -2 93 -57 106 -16 4 -36 11 -43 17 -6 5 -25 7
-42 4 -36 -8 -48 8 -18 24 21 11 21 12 3 25 -18 13 -18 14 3 14 12 0 22 -5 22
-12 0 -9 3 -9 12 0 7 7 20 12 30 12 20 0 24 16 6 23 -17 5 8 37 28 37 8 0 14
5 14 10 0 6 18 10 40 10 33 0 48 7 77 35 20 19 32 35 28 35 -5 0 -4 5 3 12 7
7 12 29 12 49 0 24 5 39 15 43 8 3 20 17 25 31 5 14 18 28 27 31 10 3 26 10
35 15 10 5 24 6 33 3 16 -7 19 6 9 44 -6 21 -7 21 -20 5 -13 -17 -13 -17 -14
0 0 9 -6 17 -14 17 -7 0 -19 7 -26 15 -9 10 -9 15 -1 15 6 0 11 -5 11 -10 0
-6 8 -5 20 2 16 10 24 10 40 0 18 -11 20 -10 20 8 0 17 7 20 40 20 36 0 40 3
40 25 0 19 -5 25 -22 25 -21 0 -20 2 7 16 16 8 43 14 60 12 53 -4 115 12 115
31 0 12 8 16 28 16 35 -2 113 -24 129 -37 7 -5 54 -11 105 -12 84 -3 94 -5
103 -24 10 -23 39 -29 50 -12 3 6 26 10 51 10 54 0 70 -23 36 -51 -30 -24 -30
-58 1 -52 19 4 24 -2 34 -37 10 -40 9 -43 -20 -71 -35 -34 -31 -33 -58 -16
-17 10 -23 9 -26 -1 -3 -7 -10 -18 -17 -25 -7 -6 -15 -20 -19 -29 -3 -10 -12
-18 -19 -18 -17 0 -37 -45 -32 -68 4 -12 -6 -22 -36 -34 -22 -10 -48 -18 -57
-18 -26 0 -93 -33 -93 -46 0 -6 -9 -14 -21 -17 -12 -3 -18 -10 -15 -15 3 -6 0
-13 -6 -16 -9 -4 -8 -5 2 -5 31 2 40 -1 40 -16 0 -8 6 -15 13 -16 6 0 23 -2
37 -3 14 -2 27 0 30 5 3 4 28 3 55 -2 70 -13 105 -4 105 27 0 13 -5 24 -11 24
-6 0 -3 7 6 16 13 14 22 14 65 4 52 -12 100 -7 100 10 0 6 8 10 18 10 26 0 34
11 21 27 -9 10 -8 13 5 13 9 0 16 7 16 15 0 8 -3 15 -7 14 -5 -1 -19 2 -31 6
-17 6 -20 10 -11 16 8 5 1 10 -22 16 -42 11 -53 43 -15 43 16 0 26 -6 26 -15
0 -8 7 -15 16 -15 8 0 12 5 9 10 -4 6 7 10 24 10 32 0 45 -20 14 -21 -10 0 -1
-7 20 -16 40 -16 49 -33 18 -33 -10 0 -21 -9 -24 -19 -4 -18 1 -20 79 -18 60
1 84 5 84 14 0 16 12 17 27 2 9 -9 16 -8 28 5 9 9 21 16 27 16 5 0 8 7 4 15
-3 9 0 15 9 15 8 0 15 5 15 10 0 6 7 10 15 10 9 0 15 9 15 25 0 27 -15 34 -24
10 -3 -8 -11 -13 -18 -10 -7 2 -37 7 -67 9 -50 5 -84 16 -48 16 10 0 17 7 17
15 0 8 5 15 11 15 5 0 7 5 4 11 -4 5 0 18 9 28 9 10 14 25 11 33 -8 20 -82 33
-101 17 -11 -9 -14 -8 -14 4 0 8 -11 22 -25 31 -14 9 -27 27 -31 41 -3 14 -10
25 -15 25 -5 0 -9 11 -9 25 0 16 -6 25 -15 25 -13 0 -14 4 -4 22 12 22 12 22
19 3 7 -18 9 -18 19 8 7 19 18 27 36 27 15 0 25 6 25 14 0 16 -21 26 -53 26
-12 0 -35 7 -51 15 -16 8 -34 15 -40 14 -6 -1 -30 -1 -53 0 -33 1 -43 5 -43
17 0 13 3 14 15 4 11 -9 23 -9 57 3 24 8 63 21 87 28 24 7 45 19 48 26 6 15
33 18 33 4 0 -8 22 -15 98 -28 17 -3 32 -9 32 -14 0 -5 5 -9 12 -9 7 0 31 -20
53 -45 30 -32 38 -48 31 -56 -8 -8 -5 -10 11 -5 16 5 23 2 28 -13 3 -12 4 -25
1 -30 -4 -5 0 -12 6 -14 7 -3 3 -6 -9 -6 -16 -1 -23 -7 -23 -21 0 -12 -7 -20
-16 -20 -13 0 -11 -7 11 -35 20 -27 25 -42 20 -64 -4 -19 -2 -30 8 -34 10 -4
12 2 9 23 -3 22 2 33 27 51 17 13 29 29 27 36 -3 7 -1 13 4 13 6 0 10 -6 10
-12 1 -18 16 11 24 45 4 18 3 26 -3 23 -11 -7 -31 25 -30 46 0 7 4 4 8 -6 7
-19 41 -32 41 -16 0 14 90 109 162 171 43 37 83 62 110 69 37 10 79 47 306
273 151 151 262 269 262 280 0 10 11 35 25 55 14 20 25 41 25 47 0 5 18 23 40
38 l41 29 -26 20 c-34 26 -19 43 29 34 25 -5 34 -11 29 -21 -6 -17 5 -19 26
-6 10 6 10 13 2 29 -14 25 -7 42 24 65 21 15 25 15 25 3 0 -8 -9 -18 -20 -21
-25 -8 -25 -17 0 -33 28 -17 49 -4 24 15 -18 13 -18 14 1 11 11 -2 22 2 25 7
2 6 17 21 32 33 26 22 28 29 28 98 0 66 3 78 25 99 13 14 31 25 40 25 18 0 18
0 2 -39 -7 -17 -12 -44 -9 -60 l4 -28 39 20 c46 22 91 73 87 96 -4 18 40 41
76 41 12 0 31 7 42 15 25 19 38 19 30 -1z m3569 -24 c7 0 15 5 17 12 8 24 38
-1 39 -34 2 -30 2 -31 6 -5 5 33 33 37 33 5 -1 -13 -7 -41 -15 -63 -19 -53
-20 -71 -1 -56 14 12 60 6 81 -9 6 -4 18 -9 28 -11 18 -4 18 -6 -3 -32 -12
-15 -19 -34 -16 -43 4 -11 -5 -20 -29 -30 -38 -16 -75 -48 -75 -64 0 -7 6 -7
19 -1 14 8 22 7 31 -3 9 -12 6 -15 -17 -18 -23 -2 -29 -8 -31 -35 -3 -30 -5
-31 -40 -26 -47 7 -46 7 -31 34 9 17 9 24 0 27 -6 2 -11 10 -11 18 0 8 -4 14
-10 14 -5 0 -10 -7 -10 -15 0 -8 5 -15 10 -15 18 0 11 -19 -7 -20 -10 0 -39
-3 -65 -6 -49 -6 -53 -4 -122 64 -27 26 -36 28 -36 7 0 -8 -7 -15 -15 -15 -8
0 -15 -4 -15 -10 0 -19 -28 -10 -33 10 -11 41 -77 7 -77 -39 l0 -25 16 22 c8
12 24 22 35 22 22 0 23 -7 7 -43 -10 -21 -20 -27 -45 -27 -18 0 -33 4 -33 10
0 12 -62 1 -75 -14 -12 -13 -54 -9 -74 7 -11 10 -13 8 -7 -10 5 -16 2 -23 -11
-27 -24 -7 -123 -4 -123 3 0 14 44 44 48 33 5 -15 32 -16 32 -2 0 6 6 10 14
10 8 0 17 9 21 20 5 16 10 18 31 10 36 -14 64 -12 64 4 0 8 -6 16 -12 19 -7 2
5 10 27 17 22 7 44 16 49 21 6 5 23 9 38 9 18 0 28 5 28 15 0 8 -4 15 -10 15
-5 0 -10 6 -10 14 0 23 -68 18 -75 -5 -4 -12 -19 -21 -43 -25 -56 -9 -72 -14
-72 -25 0 -5 -7 -9 -16 -9 -8 0 -12 5 -9 10 10 17 -4 11 -25 -10 -20 -20 -47
-19 -34 2 4 6 -1 8 -14 4 -23 -8 -62 12 -62 31 0 7 -6 13 -12 13 -9 0 -10 3
-2 8 6 4 16 16 21 27 8 13 23 20 47 21 22 0 45 9 59 22 13 12 33 22 45 22 26
0 39 18 18 26 -22 9 -20 17 9 31 14 6 23 7 20 3 -8 -13 38 -56 56 -52 10 1 20
13 23 25 4 17 8 19 18 9 15 -15 98 -16 98 -1 0 7 8 18 18 25 16 13 16 15 0 25
-10 5 -18 14 -18 18 0 13 47 30 67 25 11 -3 36 1 56 10 23 9 37 11 37 4 0 -13
57 -3 113 21 23 10 44 14 45 10 2 -5 10 -9 17 -9z m-4862 -105 c26 -8 54 -12
63 -8 8 3 33 -7 55 -23 37 -26 39 -29 23 -41 -15 -11 -16 -17 -5 -39 13 -30
14 -29 -15 -38 -14 -4 -27 1 -42 19 -21 24 -22 24 -59 8 -21 -8 -47 -22 -58
-29 -32 -23 -74 -18 -80 9 -12 48 -127 57 -205 15 -52 -27 -92 -32 -133 -15
-34 15 -35 17 -24 41 11 23 18 26 63 26 28 0 67 7 87 15 19 8 37 11 41 8 3 -4
19 6 36 22 20 19 35 26 50 22 14 -4 25 1 33 15 10 17 19 19 67 14 30 -4 76
-13 103 -21z m2566 -97 c1 -58 -12 -89 -47 -111 -15 -9 -21 -17 -14 -17 6 0
12 -6 12 -14 0 -8 6 -16 13 -19 6 -2 66 -86 132 -185 95 -143 125 -181 143
-181 22 -1 33 -21 11 -21 -7 0 -9 -10 -5 -26 6 -23 5 -25 -16 -19 -31 9 -50
33 -179 223 -79 117 -109 170 -106 184 3 11 0 27 -8 35 -12 11 -15 9 -19 -19
-6 -35 -13 -107 -22 -203 -3 -32 -7 -61 -9 -64 -9 -8 -5 73 10 214 8 77 15
163 16 190 l1 50 10 -35 c9 -32 23 -49 40 -50 3 0 9 13 13 30 5 21 2 35 -10
46 -9 9 -14 23 -11 31 3 8 1 11 -4 8 -6 -3 -10 3 -10 14 0 14 5 19 15 15 9 -4
18 1 22 12 6 16 9 14 14 -11 4 -16 7 -51 8 -77z m-1998 5 c35 -15 37 -18 32
-50 -3 -19 -2 -33 3 -32 33 6 50 -26 20 -37 -19 -7 -8 -43 25 -78 23 -24 25
-32 16 -48 -10 -15 -13 -16 -15 -4 -2 8 -9 13 -15 11 -31 -10 -147 -14 -147
-5 0 6 -9 10 -20 10 -11 0 -20 7 -20 16 0 8 -4 13 -9 10 -5 -4 -11 -1 -13 5
-6 17 -79 -22 -76 -40 2 -8 17 -22 33 -31 17 -9 31 -26 33 -40 3 -20 0 -22
-27 -18 -17 2 -29 2 -26 -1 3 -2 -11 -10 -32 -17 -35 -12 -39 -12 -87 24 -27
20 -51 32 -53 27 -10 -30 -20 -36 -45 -26 -22 8 -26 15 -25 53 0 24 2 33 4 21
3 -13 8 -23 12 -23 5 0 22 -3 39 -6 28 -6 31 -4 34 22 3 26 7 29 36 28 37 -2
42 14 12 41 -24 22 -25 44 -4 82 16 27 61 49 153 73 19 5 43 18 55 29 25 25
57 27 107 4z m448 -244 c-12 -24 -11 -32 4 -23 7 5 6 0 -3 -11 -9 -11 -10 -16
-2 -11 8 5 12 1 12 -10 0 -17 1 -16 13 1 13 17 14 17 20 -6 4 -15 1 -26 -7
-31 -8 -4 -17 -19 -20 -33 -4 -14 -12 -24 -19 -22 -7 1 -12 -8 -11 -20 0 -12
-2 -21 -5 -20 -11 4 -81 -58 -81 -72 0 -8 -6 -11 -16 -7 -10 4 -14 2 -11 -6 2
-7 0 -22 -6 -33 -8 -17 -5 -16 18 5 l28 25 -19 -35 c-10 -19 -20 -37 -22 -40
-2 -2 -7 2 -12 10 -9 13 -10 13 -11 0 -1 -8 -1 -21 0 -29 2 -7 -1 -11 -6 -8
-4 2 -24 -17 -43 -44 -24 -33 -37 -44 -43 -36 -6 8 -7 6 -3 -6 4 -12 -11 -33
-49 -71 -30 -30 -55 -56 -55 -59 0 -10 -59 -65 -63 -58 -2 3 -3 1 -1 -5 1 -6
5 -36 9 -68 4 -31 11 -58 15 -61 4 -3 32 36 61 85 l54 90 160 84 c488 255 475
249 475 216 0 -12 4 -29 9 -38 5 -9 11 -42 14 -72 3 -30 9 -63 12 -72 4 -11 3
-18 -4 -18 -6 0 -11 12 -11 28 -1 26 -1 26 -16 7 -8 -11 -10 -21 -5 -23 6 -2
2 -13 -9 -25 -11 -11 -23 -17 -27 -14 -3 4 -1 7 5 7 7 0 8 9 3 28 -9 30 2 72
19 72 5 0 10 9 10 21 0 17 -2 18 -13 7 -7 -7 -20 -26 -31 -42 -15 -23 -23 -27
-48 -24 -38 6 -79 -25 -50 -38 9 -4 25 -6 35 -5 16 2 17 0 5 -21 -7 -13 -17
-26 -23 -30 -5 -4 -10 -20 -10 -35 0 -22 -8 -32 -37 -48 -21 -11 -38 -26 -38
-34 0 -11 3 -11 16 0 13 10 17 10 24 -2 5 -7 7 -24 4 -36 -3 -12 -2 -28 2 -35
6 -9 10 -7 14 9 4 17 9 20 20 13 12 -8 12 -11 -3 -28 -9 -10 -17 -24 -17 -30
0 -7 -7 -12 -16 -12 -9 0 -14 8 -13 18 4 40 -1 47 -17 24 -19 -28 -39 -19 -23
10 8 15 8 19 -1 16 -7 -2 -24 -25 -38 -50 -15 -26 -48 -83 -74 -126 -61 -101
-62 -128 -3 -39 25 37 48 67 50 67 10 0 -8 -55 -22 -68 -7 -7 -13 -18 -13 -23
0 -5 -5 -15 -10 -22 -18 -21 -246 -404 -287 -481 -10 -19 -22 -24 -53 -24 -41
-1 -100 -21 -100 -34 0 -14 20 -18 40 -8 20 11 21 11 4 -27 -9 -21 -20 -50
-26 -65 -5 -16 -14 -26 -18 -23 -10 6 -76 -123 -67 -131 6 -6 61 72 71 101 9
26 45 69 52 62 3 -3 -2 -19 -11 -36 -9 -18 -13 -36 -10 -42 4 -5 3 -8 -2 -7
-4 2 -9 -1 -10 -6 0 -5 -8 -13 -17 -18 -9 -5 -16 -14 -16 -21 0 -7 -9 -23 -20
-37 -14 -18 -20 -41 -20 -82 0 -43 -4 -58 -14 -58 -23 0 -37 26 -31 57 6 25 5
26 -8 11 -8 -10 -19 -18 -25 -18 -15 0 -135 -210 -220 -385 -14 -27 -29 -51
-33 -53 -5 -2 -9 -11 -9 -21 0 -9 -4 -21 -8 -27 -5 -5 -19 -27 -32 -49 l-22
-40 31 34 c17 18 31 40 31 47 0 27 19 13 25 -18 12 -60 16 -66 49 -86 28 -17
34 -27 40 -70 7 -57 13 -61 127 -67 64 -3 90 8 81 34 -3 8 0 11 7 7 7 -5 11 2
11 19 0 17 4 24 11 19 9 -5 10 1 5 20 -4 18 -3 25 4 21 5 -3 10 -19 10 -36 0
-28 2 -29 44 -29 68 0 73 4 70 59 -2 27 -4 55 -6 62 -2 8 14 22 35 32 32 16
37 23 37 52 0 19 -4 36 -9 39 -14 9 -32 -20 -24 -39 5 -15 3 -17 -11 -12 -10
4 -23 7 -29 7 -7 0 -12 15 -12 34 0 26 3 32 12 24 18 -15 43 -2 43 22 0 11 7
23 15 27 12 4 15 18 14 49 -2 24 -6 44 -10 44 -4 0 -9 9 -12 20 -5 18 -7 19
-36 4 -34 -17 -51 -12 -51 16 0 10 -6 20 -14 23 -9 4 -12 15 -9 31 5 25 6 25
19 9 7 -10 14 -27 14 -37 0 -14 3 -17 10 -10 12 12 -16 104 -31 104 -8 0 -6
59 1 80 6 15 -4 48 -20 65 -22 25 -35 65 -21 65 6 0 11 4 11 10 0 5 16 34 35
64 19 30 35 60 35 66 0 5 5 10 10 10 21 0 9 -56 -25 -117 -25 -46 -33 -69 -26
-80 7 -14 10 -13 16 8 8 23 8 23 16 4 8 -20 8 -20 8 0 1 20 46 45 82 45 19 0
69 77 69 107 0 22 -9 27 -37 24 -9 -1 -9 7 -2 31 13 48 11 85 -6 92 -17 6 -21
46 -5 46 6 0 10 4 10 10 0 5 17 36 38 67 47 73 71 123 72 147 0 11 3 16 7 13
8 -8 29 27 93 150 27 51 54 98 60 105 6 7 20 28 30 46 11 17 24 32 30 32 20 0
9 -37 -35 -114 -43 -74 -50 -106 -25 -106 5 0 10 7 10 15 0 26 25 5 43 -37 10
-23 16 -51 13 -64 -3 -12 -2 -24 2 -26 5 -2 15 -16 23 -33 8 -18 23 -31 37
-33 21 -3 32 -22 12 -22 -5 0 -10 -4 -10 -10 0 -5 11 -10 25 -10 14 0 25 -4
25 -10 0 -5 -9 -10 -21 -10 -11 0 -17 -4 -14 -10 9 -15 30 -12 55 8 20 16 20
19 6 47 -13 25 -14 31 -2 33 17 4 29 73 16 86 -6 6 -10 16 -10 24 0 9 7 6 20
-9 10 -13 19 -20 20 -15 0 11 70 -65 70 -77 0 -16 115 -59 173 -64 48 -5 57
-9 57 -25 0 -14 5 -18 15 -14 13 5 20 -5 16 -26 0 -5 6 -8 15 -8 11 0 14 -5
10 -16 -4 -11 -2 -15 8 -11 13 5 31 -18 27 -36 0 -4 6 -10 14 -13 8 -4 15 -12
15 -19 0 -7 6 -18 14 -24 24 -20 29 -62 9 -76 -10 -7 -21 -11 -25 -9 -5 3 -8
-4 -8 -15 0 -10 -5 -21 -12 -23 -8 -3 -8 -9 0 -24 9 -15 11 -16 12 -3 0 16 54
79 68 79 4 0 16 -15 27 -32 10 -18 49 -63 86 -100 80 -81 153 -119 232 -121
51 -1 113 22 129 47 5 7 36 -19 83 -69 136 -144 379 -396 424 -439 43 -41 109
-108 304 -309 l104 -108 7 -117 c5 -64 10 -148 12 -187 8 -125 54 -243 108
-279 38 -24 88 -21 116 9 24 26 54 33 65 15 3 -5 24 -10 46 -10 29 0 47 7 65
25 22 22 31 25 62 19 20 -4 46 -18 59 -31 23 -22 24 -28 17 -108 -6 -71 -3
-101 17 -182 13 -54 27 -99 31 -101 5 -2 8 -11 8 -19 0 -8 13 -32 29 -52 36
-45 83 -142 77 -158 -3 -6 -13 -11 -23 -11 -10 0 -25 -3 -35 -6 -11 -5 -18 -1
-23 13 -5 17 -14 19 -60 18 -87 -4 -126 -65 -72 -114 21 -20 26 -21 82 -9 50
10 61 16 63 34 2 12 6 22 10 23 45 7 82 6 82 -2 0 -5 -7 -9 -15 -9 -17 0 -18
-2 -9 -24 3 -9 15 -16 25 -16 11 0 24 -11 31 -25 11 -24 19 -29 44 -26 6 1 11
-12 11 -27 0 -16 11 -53 26 -83 53 -111 97 -212 97 -222 0 -6 -28 -7 -73 -3
-117 11 -107 32 -188 -385 -38 -195 -69 -364 -69 -376 0 -13 -8 -31 -18 -41
-24 -24 -34 -62 -21 -79 8 -9 8 -31 1 -75 -6 -35 -14 -96 -18 -135 l-7 -73
-98 0 c-54 0 -100 4 -104 9 -3 6 11 17 30 27 57 27 80 90 53 149 -25 56 -116
73 -164 31 -23 -20 -28 -31 -26 -67 1 -33 -1 -39 -8 -24 -7 17 -9 17 -9 3 -1
-28 20 -67 48 -84 17 -12 26 -14 29 -6 2 7 8 12 14 12 6 0 8 -6 5 -13 -15 -40
50 -67 159 -67 l71 0 6 -152 c4 -83 7 -195 7 -249 0 -107 -1 -109 -68 -109
-56 0 -72 -22 -72 -98 0 -107 29 -137 176 -177 47 -13 89 -26 92 -29 4 -5
-117 -11 -140 -7 -5 0 -8 -7 -8 -17 0 -10 -5 -23 -11 -29 -8 -8 -2 -14 24 -23
27 -11 37 -22 51 -59 22 -62 21 -81 -5 -81 -32 0 -131 -31 -146 -45 -10 -11
-10 -15 2 -25 12 -10 15 -10 15 3 0 8 7 18 16 21 26 10 64 7 64 -5 0 -6 -7 -8
-16 -5 -9 4 -13 2 -8 -5 4 -7 0 -9 -14 -5 -13 4 -24 2 -29 -7 -4 -7 -34 -28
-65 -46 l-58 -32 0 25 c0 16 -6 26 -14 26 -7 0 -17 10 -21 23 -3 12 -8 17 -11
11 -6 -13 -153 -9 -167 5 -5 5 -21 6 -37 1 -15 -4 -34 -4 -41 1 -8 5 -22 3
-34 -5 -24 -16 -101 -19 -127 -5 -13 7 -18 6 -18 -2 0 -8 -12 -10 -34 -6 -18
3 -38 2 -42 -3 -5 -5 -67 -13 -139 -19 -71 -6 -143 -14 -160 -19 -36 -10 -65
-5 -65 11 0 8 -3 8 -9 -1 -7 -11 -24 -11 -92 -2 -46 6 -95 16 -108 21 -16 7
-28 6 -37 -2 -8 -6 -20 -9 -29 -6 -8 4 -17 2 -20 -4 -4 -5 -11 -6 -17 -3 -6 4
-52 9 -102 11 -107 5 -102 5 -143 -3 -20 -4 -33 -2 -33 4 0 6 -47 9 -127 7
-70 -2 -135 1 -144 6 -19 10 -53 11 -124 6 -27 -2 -56 0 -62 6 -10 7 -13 4
-13 -8 0 -10 -3 -16 -6 -12 -4 3 -13 -1 -22 -10 -14 -14 -17 -14 -28 1 -8 12
-14 14 -19 6 -4 -6 -12 -9 -19 -7 -7 3 -37 -1 -67 -8 -30 -7 -47 -14 -39 -14
10 -1 8 -5 -7 -16 -12 -8 -28 -12 -37 -9 -11 4 -16 1 -16 -10 0 -12 -10 -16
-40 -16 -38 0 -40 -2 -40 -31 0 -21 4 -29 13 -25 6 3 20 9 30 12 9 4 17 13 17
20 0 17 6 18 26 2 44 -37 54 -51 43 -65 -17 -20 -25 -16 -40 19 -13 33 -15 32
-33 -24 -4 -14 -11 -16 -28 -10 -52 19 -101 -26 -63 -58 18 -15 10 -30 -16
-30 -10 0 -19 -4 -19 -9 0 -13 69 -19 74 -6 2 6 8 5 17 -3 11 -11 10 -14 -9
-18 -39 -11 -24 -19 38 -21 33 -1 68 -7 78 -12 18 -11 -11 -14 -133 -15 -27
-1 -56 -5 -62 -9 -8 -5 -13 -30 -13 -63 0 -41 -4 -56 -16 -61 -9 -3 -14 -13
-11 -24 3 -12 0 -16 -9 -12 -8 3 -14 11 -14 18 0 7 -7 15 -15 19 -10 4 -15 -1
-15 -15 0 -20 -4 -23 -52 -33 -42 -9 -34 -26 12 -26 22 0 40 -5 40 -10 0 -7
-13 -8 -37 -3 -21 4 -59 7 -85 6 -35 0 -48 3 -48 13 0 16 -9 18 -29 5 -9 -6
-10 -11 -2 -15 13 -9 15 -36 2 -36 -5 0 -13 9 -16 20 -4 11 -10 18 -15 15 -9
-6 -23 25 -15 33 3 3 5 0 5 -6 0 -7 5 -12 11 -12 8 0 8 5 -1 15 -7 8 -16 13
-20 10 -10 -6 -60 53 -85 99 -11 20 -27 45 -35 54 -66 75 -177 242 -246 372
-27 52 -71 135 -97 183 -26 49 -54 113 -63 143 -8 29 -18 53 -22 53 -19 -3
-32 2 -32 12 0 6 7 8 16 5 12 -5 15 -2 9 11 -22 58 -80 273 -110 405 -33 147
-46 221 -100 588 -14 91 -32 208 -40 260 -11 73 -12 108 -4 150 13 68 24 128
46 249 39 220 -41 401 -178 401 -36 0 -49 4 -49 15 0 7 -7 18 -17 23 -15 9
-14 15 7 80 19 57 31 77 65 106 44 36 44 35 69 191 2 11 7 29 11 40 5 16 5 17
-4 5 -9 -13 -11 -13 -11 1 0 16 27 56 62 91 16 16 17 16 20 -4 3 -18 7 -16 30
18 19 26 24 40 16 45 -18 11 83 129 111 129 7 0 11 6 8 14 -5 12 34 69 73 106
9 8 26 30 39 48 12 17 29 32 37 32 8 0 14 8 14 18 0 9 14 35 31 57 29 38 29
40 9 47 -11 4 -27 5 -35 2 -20 -8 -30 -45 -15 -54 13 -8 8 -14 -70 -99 -22
-24 -40 -46 -40 -50 0 -3 -20 -26 -45 -50 -25 -24 -45 -38 -45 -32 0 7 11 22
25 35 26 24 26 59 -1 49 -8 -3 -14 -1 -14 5 0 6 23 18 50 27 28 9 50 22 50 28
0 6 8 19 18 30 14 15 17 38 17 116 0 89 -3 101 -34 163 -35 70 -62 96 -121
114 -19 6 -34 16 -32 23 1 7 -2 10 -7 7 -16 -10 -40 5 -56 36 -15 30 -12 53 6
43 15 -10 10 18 -7 43 -9 13 -13 31 -9 45 5 17 4 19 -4 7 -9 -12 -11 -10 -12
10 0 25 0 25 -11 3 -6 -12 -7 -30 -3 -40 5 -10 7 -22 6 -27 -1 -5 3 -13 10
-17 14 -8 5 -39 -11 -39 -6 0 -8 5 -5 10 4 6 2 17 -4 24 -6 7 -9 20 -6 28 3 8
-1 21 -10 28 -13 11 -14 10 -9 -4 4 -10 0 -18 -10 -22 -9 -3 -16 -12 -16 -20
0 -27 -36 -13 -130 52 -52 36 -162 111 -245 166 -308 207 -389 274 -462 383
-46 68 -65 85 -105 92 -21 3 -37 9 -36 13 2 5 81 88 177 187 95 98 281 289
414 426 132 136 272 280 309 320 l69 72 19 -24 c11 -13 20 -32 20 -43 0 -29
-21 -99 -37 -123 -18 -26 -16 -34 5 -31 54 10 95 15 85 10 -7 -3 -13 -10 -13
-15 0 -6 13 -2 29 7 26 15 32 16 48 3 16 -13 17 -12 5 2 -10 14 -10 18 2 22 8
3 17 1 20 -6 2 -7 5 -4 5 5 1 10 16 33 35 52 25 24 33 40 29 55 -6 22 12 30
20 9 2 -7 2 -3 1 9 -2 12 0 24 5 27 15 10 0 44 -22 51 -19 6 -20 8 -4 12 27 7
21 33 -30 118 -29 48 -43 80 -36 82 7 3 9 11 6 20 -5 13 -2 15 15 11 15 -4 22
-2 22 7 0 20 19 28 35 15 11 -9 14 -6 13 18 -1 39 6 49 42 57 17 4 30 12 30
19 0 7 15 26 33 43 17 16 45 49 61 71 17 23 33 42 38 42 10 0 58 53 58 65 0 6
9 16 20 22 16 11 18 10 14 -2 -4 -8 -1 -15 5 -15 15 0 38 51 33 74 -3 16 0 18
23 14 24 -5 26 -3 21 21 -5 21 -4 23 4 9 6 -10 16 -18 23 -18 9 0 9 2 0 8 -7
5 -10 17 -6 32 6 22 7 23 14 4 7 -17 8 -17 8 4 1 26 25 55 35 44 11 -10 46 40
46 67 0 16 4 21 15 17 8 -3 15 -2 15 3 0 5 8 8 18 7 10 0 17 6 17 17 0 11 10
27 21 36 12 10 24 26 27 37 3 13 5 11 6 -9 1 -40 21 -23 21 19 0 28 4 34 22
34 12 0 19 3 16 6 -6 5 38 54 47 54 3 0 5 -7 5 -15 0 -21 17 -19 24 3 4 10 13
19 21 19 10 0 11 -5 4 -18z m752 -42 c-6 -6 -11 -23 -11 -39 0 -20 4 -26 15
-22 9 4 15 0 15 -9 0 -17 40 -90 51 -95 4 -2 5 -12 2 -22 -3 -12 0 -20 6 -20
7 0 11 -6 10 -12 -1 -7 3 -26 10 -43 7 -16 14 -50 14 -74 2 -43 1 -44 -40 -59
-23 -9 -44 -21 -47 -28 -7 -19 5 -54 18 -54 7 0 18 -16 24 -36 9 -29 8 -43 -3
-64 -8 -15 -12 -30 -9 -33 3 -3 0 -23 -6 -45 -12 -47 4 -174 26 -207 13 -18
14 -17 14 18 0 50 30 117 52 117 10 0 18 -7 18 -15 0 -8 -9 -15 -20 -15 -24 0
-27 -25 -3 -34 13 -5 14 -9 4 -19 -9 -9 -14 -9 -21 3 -16 24 -11 -3 5 -34 9
-16 13 -37 9 -45 -5 -13 -8 -11 -15 9 -5 16 -6 7 -2 -25 4 -39 1 -54 -11 -64
-9 -8 -19 -11 -23 -8 -15 16 -43 -15 -43 -49 0 -21 -4 -33 -10 -29 -5 3 -10
-3 -10 -14 0 -12 -4 -21 -10 -21 -9 0 -14 16 -13 46 0 6 -7 9 -16 7 -17 -4
-81 72 -81 96 0 6 -4 11 -9 11 -5 0 -13 10 -17 23 -4 12 -10 24 -13 27 -10 8
-67 138 -89 205 -11 33 -28 99 -37 147 l-17 86 33 59 c18 32 43 72 55 88 12
17 46 75 74 130 28 55 60 109 71 121 10 11 19 24 19 27 0 4 8 20 17 34 15 23
18 24 21 9 2 -10 -1 -23 -7 -29z m-401 -81 c0 -46 -4 -65 -14 -69 -9 -4 -12
-14 -9 -26 4 -16 1 -21 -15 -21 -12 0 -26 -10 -33 -21 -9 -17 -13 -19 -20 -8
-7 12 -14 11 -40 -4 -17 -9 -35 -15 -39 -12 -20 13 32 92 70 107 15 6 20 12
13 15 -26 9 -12 43 29 73 22 16 45 30 50 30 4 0 8 -29 8 -64z m-324 -121 c-7
-19 -15 -38 -19 -41 -11 -11 -8 -27 8 -48 12 -15 25 -19 60 -17 25 1 45 0 45
-3 0 -2 -61 -39 -137 -83 -75 -43 -154 -88 -175 -100 -21 -13 -38 -19 -38 -14
0 5 27 51 60 102 33 52 64 104 70 116 13 32 76 93 94 93 9 0 19 7 22 15 12 32
21 13 10 -20z m4017 16 c4 -1 7 -12 7 -26 0 -21 -5 -25 -30 -25 -25 0 -30 -4
-30 -25 0 -20 -6 -25 -37 -31 -21 -4 -50 -15 -65 -25 -14 -11 -33 -19 -42 -19
-19 0 -21 -11 -3 -29 10 -12 9 -13 -7 -7 -12 4 -23 0 -30 -9 -7 -10 -27 -16
-54 -17 -31 0 -46 -6 -57 -21 -8 -11 -18 -17 -22 -13 -5 5 -3 11 4 13 10 3 10
9 0 24 -8 13 -23 19 -49 19 -21 0 -38 5 -38 10 0 6 18 10 39 10 31 0 41 -4 46
-20 9 -29 35 -25 35 5 0 23 -31 51 -43 39 -11 -11 -77 8 -77 23 0 8 -4 12 -9
9 -5 -3 -30 -3 -55 0 -36 5 -46 11 -46 25 0 15 8 19 39 19 23 0 46 -7 55 -16
15 -14 16 -14 16 0 0 18 45 23 55 6 3 -5 27 -10 53 -10 36 0 54 6 76 25 23 20
37 24 58 20 21 -5 28 -3 26 7 -2 10 9 12 45 11 30 -2 46 1 42 7 -3 6 -14 10
-23 11 -14 0 -13 2 3 9 16 7 70 7 118 1z m-645 -21 c40 0 34 -16 -10 -25 -37
-9 -70 -36 -50 -43 30 -10 7 -17 -55 -16 -41 0 -73 -4 -80 -11 -6 -7 -23 -10
-36 -8 -14 3 -40 -2 -58 -10 -111 -48 -153 -60 -177 -52 -22 6 -47 55 -35 65
14 12 137 55 150 52 6 -1 14 2 18 8 3 5 21 10 38 10 18 0 48 5 67 11 19 6 60
10 91 9 40 -1 60 4 69 15 9 11 16 13 24 5 5 -5 25 -10 44 -10z m-1540 -75 c-3
-14 -2 -25 1 -25 13 0 30 -65 24 -91 -3 -17 5 -46 21 -81 14 -30 26 -58 26
-61 0 -3 13 -34 28 -69 16 -35 37 -82 46 -104 16 -37 172 -204 190 -204 10 0
-13 42 -38 68 -11 13 -20 25 -19 28 4 7 -31 66 -58 98 -35 41 -82 152 -88 209
-1 4 -7 7 -15 7 -8 0 -18 5 -21 10 -11 18 -15 70 -5 70 5 0 13 19 18 43 6 24
10 32 11 19 1 -13 6 -20 11 -17 6 3 10 2 10 -3 0 -5 9 -19 19 -31 11 -13 22
-28 24 -34 3 -10 216 6 251 19 8 3 16 -2 19 -13 4 -16 6 -15 12 5 8 25 37 29
55 7 11 -13 10 -18 -6 -30 -26 -20 -108 -45 -171 -52 -29 -3 -53 -11 -53 -17
0 -6 -5 -4 -10 4 -7 11 -10 11 -10 2 0 -7 -4 -10 -10 -7 -5 3 -10 1 -10 -5 0
-7 -7 -10 -15 -6 -33 12 -13 -45 45 -131 33 -48 86 -126 117 -173 32 -47 60
-87 63 -90 3 -3 28 -39 55 -80 28 -41 53 -76 58 -78 4 -2 7 -8 7 -13 0 -6 31
-54 69 -107 70 -98 111 -138 111 -107 0 8 4 15 9 15 17 0 41 -12 41 -21 0 -5
8 -27 17 -49 13 -29 22 -39 33 -34 8 3 27 10 43 14 40 13 35 -11 -8 -34 -19
-11 -35 -22 -35 -26 0 -16 15 -18 40 -5 38 19 126 20 175 2 113 -43 121 -60
38 -78 -100 -20 -133 -30 -133 -37 0 -4 8 -17 18 -30 l18 -23 98 25 c94 24 97
25 115 7 10 -10 21 -35 25 -55 5 -27 14 -40 34 -49 27 -12 64 -49 56 -56 -2
-2 -10 2 -18 8 -24 20 -86 50 -79 38 4 -6 1 -7 -8 -1 -8 5 -43 12 -79 16 -36
5 -78 10 -93 12 -22 3 -70 46 -189 168 -285 291 -360 376 -324 362 26 -10 19
15 -13 47 -36 35 -55 38 -46 7 4 -13 -73 58 -174 159 -100 100 -181 187 -181
193 0 6 -12 37 -26 68 -14 31 -35 79 -46 106 -50 128 -81 175 -115 176 -8 0
-13 13 -13 30 0 30 14 41 23 18 2 -7 7 -10 11 -7 10 9 11 39 3 72 -6 21 -4 27
9 27 12 0 15 -7 12 -25z m-417 -165 c6 0 7 5 4 10 -3 6 -3 10 2 10 11 0 93
-90 93 -102 0 -12 50 -80 68 -91 7 -5 10 -14 6 -20 -3 -7 1 -4 10 7 8 10 27
24 41 32 l26 13 63 -132 c42 -88 60 -136 54 -144 -6 -7 -5 -20 3 -35 7 -13 13
-30 14 -38 1 -16 61 -80 74 -80 14 0 92 -90 86 -99 -3 -5 4 -7 15 -4 20 5 28
23 10 23 -5 0 -10 5 -10 12 0 6 9 3 21 -8 11 -10 16 -20 10 -22 -7 -2 -6 -11
2 -25 20 -35 47 -70 47 -60 0 5 -6 15 -12 23 -7 8 -3 6 10 -4 12 -11 22 -23
22 -28 0 -5 9 -18 20 -30 11 -12 20 -18 20 -14 0 4 6 1 14 -6 11 -10 11 -16 2
-27 -9 -12 -8 -13 7 -8 23 9 59 -26 50 -50 -5 -15 -3 -16 8 -5 7 6 18 12 23
12 6 0 5 -4 -2 -8 -9 -7 -7 -15 12 -35 14 -15 28 -27 32 -27 4 0 -3 12 -17 26
-20 23 -21 25 -4 16 11 -5 30 -21 42 -35 16 -19 18 -28 10 -38 -10 -11 -9 -11
5 0 10 7 14 19 11 29 -6 15 -3 14 15 -2 12 -10 19 -22 17 -26 -3 -4 3 -7 13
-6 12 1 16 -6 14 -24 -1 -18 1 -21 7 -11 7 11 17 6 50 -24 22 -21 38 -42 35
-47 -7 -11 22 -45 51 -61 18 -9 19 -9 6 6 -8 11 -9 17 -3 17 11 0 38 -40 34
-51 -1 -4 10 -10 23 -13 14 -4 25 -14 25 -23 0 -9 3 -13 7 -10 3 4 15 0 25
-10 20 -18 25 -38 6 -27 -7 4 -8 3 -4 -4 4 -6 13 -9 21 -5 10 3 15 -1 15 -15
0 -11 7 -23 16 -26 10 -4 13 -2 8 7 -4 6 2 4 14 -6 12 -11 18 -25 15 -34 -5
-12 -1 -14 15 -9 11 4 23 2 27 -3 3 -7 0 -8 -9 -5 -9 3 -16 1 -16 -5 0 -6 4
-11 8 -11 5 0 15 -11 22 -25 7 -14 18 -25 25 -25 6 0 12 -8 12 -17 9 -85 12
-98 25 -95 51 14 72 10 95 -14 14 -15 22 -33 19 -41 -4 -11 -2 -13 9 -9 22 8
19 -1 -4 -14 -17 -9 -19 -7 -15 14 3 18 -3 30 -25 45 l-28 21 -1 -48 c0 -27 3
-39 7 -29 10 27 12 -328 2 -423 -5 -51 -5 -94 0 -108 6 -15 6 -29 0 -36 -10
-12 -8 -66 3 -84 4 -7 4 -12 -1 -12 -4 0 -22 20 -40 43 -18 23 -45 56 -60 73
-15 17 -57 64 -93 104 -36 40 -70 78 -75 84 -6 6 -35 40 -65 76 -56 67 -108
127 -164 191 -17 20 -40 47 -50 60 -11 13 -58 69 -106 124 -95 110 -210 245
-308 364 -35 42 -92 106 -127 142 -75 78 -100 125 -160 299 -28 84 -64 163
-97 218 -48 78 -78 136 -78 149 0 2 13 -5 30 -17 33 -23 73 -20 63 6 -4 11 2
15 23 15 16 0 47 2 69 4 22 2 46 4 53 4 9 1 7 9 -7 27 -12 15 -21 34 -21 44 0
23 -42 70 -62 70 -27 0 -46 -26 -42 -60 4 -30 3 -30 -24 -16 -78 40 -118 120
-110 220 5 62 5 64 -19 62 -17 -1 -25 -8 -29 -26 -10 -44 -12 -46 -13 -7 -1
39 21 79 27 51 2 -8 8 -14 13 -14z m-321 -485 c-7 -8 -10 -22 -6 -30 5 -13 10
-14 27 -5 19 11 20 10 10 -9 -9 -16 -9 -19 2 -15 22 8 31 -28 11 -43 -10 -7
-14 -16 -11 -20 4 -3 19 4 34 18 l27 24 -25 -35 c-21 -31 -61 -77 -124 -145
-11 -11 -28 -33 -38 -48 -9 -15 -22 -27 -28 -27 -11 0 11 30 73 101 60 68 33
59 -32 -11 -33 -35 -60 -66 -60 -68 0 -5 -24 -32 -57 -64 -18 -17 -33 -36 -33
-42 0 -7 -9 -19 -20 -29 -11 -9 -20 -28 -20 -42 0 -15 -4 -24 -10 -20 -5 3
-10 15 -10 27 0 14 -5 18 -15 14 -8 -3 -15 -1 -15 4 0 6 -11 33 -25 62 -29 60
-33 103 -10 94 8 -3 15 -2 15 3 0 5 -9 11 -20 14 -11 3 -20 10 -20 15 0 7 11
6 30 -1 22 -8 28 -16 24 -29 -4 -14 0 -17 25 -15 17 1 31 7 31 13 0 6 19 17
41 24 75 25 141 111 203 263 8 20 20 37 27 37 8 0 8 -4 -1 -15z m110 -122
c-27 -38 -64 -84 -82 -104 -18 -20 -49 -56 -69 -80 -21 -24 -52 -60 -70 -80
-92 -98 -121 -140 -115 -164 4 -14 13 -25 20 -25 8 0 27 -11 43 -24 15 -13 51
-32 80 -42 28 -10 49 -22 47 -26 -3 -4 3 -8 14 -8 10 0 36 -19 57 -41 36 -40
37 -43 20 -55 -22 -17 -73 -18 -111 -3 -28 10 -125 104 -154 148 -8 13 -23 34
-33 47 -21 27 -17 48 15 84 13 14 45 52 73 85 27 33 52 62 55 65 4 4 68 80
125 149 33 40 127 141 131 141 2 0 -18 -30 -46 -67z m2067 -70 c25 -12 33 -21
30 -34 -3 -11 -1 -22 5 -25 15 -10 -43 -35 -64 -28 -14 4 -21 0 -25 -15 -6
-24 -12 -25 -48 -9 -15 7 -24 17 -21 25 3 7 1 13 -4 13 -16 0 -11 26 8 43 9 8
29 19 45 22 15 4 27 11 27 16 0 13 7 11 47 -8z m-847 -250 c49 -48 66 -59 69
-46 2 10 -2 19 -8 21 -9 3 -8 8 1 19 11 14 10 15 -10 9 -17 -6 -21 -4 -16 7 3
10 -3 18 -16 22 -17 5 -19 10 -10 18 8 9 15 8 24 -5 7 -10 18 -18 24 -18 6 0
25 -15 42 -33 16 -18 68 -72 116 -121 68 -69 83 -90 74 -101 -9 -11 -7 -16 9
-25 12 -6 21 -19 21 -30 0 -16 5 -19 30 -13 22 4 36 0 51 -13 11 -10 25 -19
32 -20 223 -34 264 -45 251 -65 -4 -7 -10 -7 -17 0 -15 15 -27 14 -27 -4 0
-17 -25 -20 -35 -5 -3 6 -21 10 -40 10 -19 0 -37 5 -40 11 -4 6 -13 8 -21 5
-8 -3 -14 -2 -14 2 0 7 -97 37 -149 47 -23 4 -44 20 -101 75 -117 112 -350
345 -350 348 0 7 31 -20 110 -95z m566 -48 c4 -8 17 -15 30 -15 14 0 36 -7 49
-16 17 -11 25 -12 25 -5 0 7 5 9 12 5 18 -11 92 -5 138 11 28 10 47 12 60 5 9
-5 20 -7 22 -4 10 9 78 -38 78 -54 0 -15 14 -8 16 9 1 5 2 14 3 19 0 6 10 10
21 10 11 0 20 -4 20 -10 0 -5 5 -10 10 -10 6 0 10 9 10 19 0 23 43 36 68 22
15 -10 15 -10 -2 -11 -13 0 -17 -3 -10 -10 6 -6 22 -6 44 0 28 8 35 7 47 -10
16 -22 43 -26 61 -8 12 12 102 13 112 0 3 -4 20 -12 39 -19 27 -10 36 -10 47
2 8 8 21 12 28 9 22 -8 26 -43 8 -53 -13 -8 -14 -13 -5 -22 15 -15 58 -4 82
20 16 16 35 19 134 20 63 0 122 4 132 7 12 5 16 4 12 -3 -5 -7 0 -9 12 -6 12
3 21 15 23 31 2 17 10 28 23 31 11 2 23 8 26 13 5 7 17 6 37 -3 26 -11 29 -16
22 -40 -6 -20 -4 -31 6 -40 12 -9 14 -5 14 26 0 33 2 36 15 25 9 -7 14 -19 11
-27 -3 -7 1 -13 9 -13 8 0 12 -6 9 -14 -3 -9 6 -15 28 -20 26 -5 36 -2 48 14
l16 21 14 -25 c7 -14 21 -28 32 -32 22 -7 24 -24 2 -24 -13 0 -15 -7 -10 -32
9 -47 29 -58 90 -51 28 3 54 10 57 15 9 14 87 12 105 -3 12 -10 20 -10 34 -1
10 6 44 12 75 13 31 1 58 6 61 11 3 5 14 6 25 3 13 -4 19 -2 19 9 0 12 10 16
40 16 22 0 40 -4 40 -8 0 -10 -45 -32 -65 -32 -8 0 -15 -6 -15 -14 0 -8 -6
-16 -14 -19 -7 -3 -16 -14 -18 -25 -4 -15 0 -19 17 -19 13 0 53 -4 88 -7 59
-7 64 -9 59 -28 -2 -11 -15 -31 -28 -44 -13 -12 -24 -27 -24 -32 0 -5 -9 -12
-20 -15 -14 -4 -18 -10 -14 -22 6 -14 1 -16 -22 -14 -16 1 -36 -1 -44 -4 -8
-3 -24 -7 -35 -9 -13 -2 -21 -12 -23 -30 -3 -23 1 -28 25 -34 15 -4 34 -11 40
-17 7 -5 29 -6 49 -3 34 7 35 6 29 -16 -13 -43 -45 -68 -87 -68 -21 0 -38 -4
-38 -9 0 -5 -15 -18 -34 -29 -40 -24 -82 -19 -90 10 -4 18 -10 20 -48 14 -142
-23 -193 -25 -236 -9 -28 11 -41 21 -38 30 9 21 -4 15 -40 -21 -20 -20 -48
-36 -71 -41 -42 -8 -120 -41 -145 -62 -9 -8 -25 -16 -35 -17 -10 -2 -24 -15
-31 -29 -7 -15 -20 -27 -28 -27 -8 0 -25 -10 -37 -21 l-22 -21 21 6 c14 4 28
1 37 -9 9 -8 39 -17 71 -19 37 -2 64 -11 83 -25 21 -18 35 -21 65 -16 30 5 39
3 44 -9 7 -18 34 -22 34 -5 0 8 5 8 15 -1 11 -9 19 -9 28 -2 19 16 128 18 154
4 12 -7 44 -12 72 -12 30 0 51 -5 53 -12 3 -8 12 -1 22 15 10 15 27 27 37 27
11 0 19 4 19 9 0 4 27 9 60 10 49 1 60 -2 60 -15 0 -12 -5 -14 -17 -9 -10 5
-29 8 -43 9 -19 1 -24 -4 -22 -16 2 -12 -4 -18 -15 -18 -20 0 -43 -42 -43 -78
0 -21 4 -24 25 -20 14 3 25 1 25 -3 0 -15 28 -10 45 8 13 13 19 13 25 4 5 -9
10 -10 14 -2 10 16 36 13 36 -4 0 -8 9 -15 20 -15 11 0 20 -4 20 -10 0 -5 -9
-10 -20 -10 -22 0 -23 -3 -14 -37 6 -21 8 -21 27 -8 12 8 28 15 36 15 21 0 53
42 48 62 -6 20 27 26 38 8 6 -10 70 -40 86 -40 5 0 9 14 9 30 0 23 5 30 19 30
11 0 23 5 27 11 4 8 -3 9 -25 4 -26 -6 -30 -4 -25 10 4 9 13 14 21 11 19 -8
63 4 63 16 0 6 -7 7 -16 4 -14 -6 -92 7 -124 21 -8 3 -21 7 -29 9 -57 11 -63
15 -51 29 7 8 27 15 45 15 36 0 45 13 45 64 0 27 -5 34 -32 44 l-33 12 29 23
c20 16 25 26 18 31 -7 4 -12 17 -12 29 0 22 2 22 140 21 88 -1 140 2 140 8 0
6 6 5 15 -2 8 -6 19 -9 24 -6 5 4 13 2 16 -4 4 -6 15 -8 26 -5 14 5 22 -1 31
-19 13 -30 16 -31 46 -10 13 9 53 19 90 22 63 7 67 9 70 33 2 21 7 26 22 22
11 -3 17 -9 14 -14 -3 -5 1 -6 9 -3 8 3 18 -6 25 -21 7 -14 20 -25 31 -25 11
0 23 -4 26 -10 7 -12 75 -14 75 -2 0 10 27 12 244 18 105 3 197 9 207 14 16 9
127 14 254 12 107 -2 175 7 175 24 0 8 5 14 11 14 5 0 8 -4 5 -9 -12 -18 27
-34 84 -34 52 0 60 -3 60 -19 0 -10 4 -18 9 -18 19 0 24 -42 7 -52 -21 -12 -2
-33 37 -40 22 -4 25 -3 16 9 -9 10 -9 17 -1 25 9 9 12 8 12 -6 0 -9 3 -15 8
-12 4 2 15 -2 26 -9 16 -12 16 -18 7 -48 -9 -26 -17 -34 -33 -33 -12 0 -23 -5
-26 -13 -3 -9 1 -11 16 -7 11 4 23 2 27 -4 3 -5 -1 -10 -9 -10 -22 0 -20 -17
2 -24 24 -7 -76 1 -115 9 -25 6 -32 3 -37 -12 -7 -21 -57 -47 -66 -34 -8 14
-189 9 -198 -6 -4 -6 -24 -14 -45 -18 -28 -6 -44 -3 -65 11 -48 33 -78 42
-165 49 -62 5 -87 11 -91 22 -5 12 -9 13 -21 3 -10 -9 -15 -9 -15 -1 0 6 -7
11 -15 11 -8 0 -15 -5 -15 -11 0 -7 -10 -9 -25 -7 -13 3 -26 0 -28 -5 -2 -7
-18 -6 -48 2 -106 31 -263 35 -239 6 8 -9 6 -14 -6 -19 -9 -3 -20 -3 -26 0 -7
4 -7 0 0 -12 15 -30 3 -44 -39 -44 -21 0 -39 -4 -39 -8 0 -4 -18 -8 -40 -8
-37 1 -40 3 -40 28 0 25 -5 29 -40 34 -30 5 -40 11 -40 25 0 14 -7 19 -29 19
-26 0 -30 -4 -33 -32 -2 -20 -8 -32 -15 -30 -7 1 -13 -5 -13 -14 0 -8 5 -12
10 -9 6 4 19 4 28 0 14 -5 11 -9 -15 -20 -18 -8 -33 -19 -33 -25 0 -18 -17
-11 -28 13 l-11 22 0 -23 c-1 -20 -6 -23 -33 -22 -80 5 -98 1 -98 -20 0 -11 6
-20 13 -21 6 -1 19 -2 27 -3 8 -2 27 -3 43 -4 23 -2 27 -6 27 -32 0 -25 -4
-30 -32 -35 -18 -3 -89 -4 -158 -2 -125 4 -125 4 -193 -30 -73 -35 -97 -40
-98 -20 0 6 -5 2 -11 -10 -6 -13 -19 -23 -29 -23 -10 0 -22 -7 -27 -16 -5 -9
-11 -15 -13 -14 -2 1 -17 -4 -34 -11 -16 -7 -39 -13 -50 -14 -11 -1 -67 -7
-124 -14 -123 -13 -111 -13 -111 -3 0 5 10 14 23 20 20 10 20 11 -12 11 -19 1
-32 -2 -28 -5 3 -4 -1 -13 -10 -22 -14 -14 -12 -17 20 -34 48 -24 53 -35 28
-62 -37 -39 -28 -51 36 -49 32 1 58 2 58 3 0 1 13 4 28 6 28 5 29 4 22 -28 -4
-18 -13 -36 -19 -40 -6 -5 -2 -8 12 -8 12 0 22 6 22 13 0 7 14 21 30 30 17 10
30 22 30 27 0 5 8 9 18 9 9 0 28 2 42 4 14 3 29 5 33 6 5 0 5 6 2 11 -4 6 -3
10 2 9 8 -3 48 13 96 37 16 8 50 14 77 14 29 0 50 5 54 13 3 8 8 7 16 -5 6
-10 15 -18 19 -18 12 0 9 34 -3 42 -6 5 -2 8 11 8 27 0 73 20 73 32 0 4 9 8
20 8 11 0 20 -4 20 -10 0 -15 16 -12 34 5 17 18 27 19 24 4 -3 -10 38 -28 110
-50 45 -14 41 -32 -13 -59 -33 -17 -115 -95 -115 -111 0 -5 -16 -24 -35 -42
-19 -17 -35 -36 -35 -42 0 -6 -10 -15 -22 -20 -13 -6 -24 -20 -26 -33 -2 -15
-9 -22 -20 -20 -10 2 -17 -4 -17 -12 0 -11 9 -14 32 -13 17 2 35 -2 38 -7 3
-6 15 -10 26 -10 25 0 25 -30 -1 -37 -11 -3 -20 -9 -20 -14 0 -5 -15 -9 -32
-9 -25 0 -29 -3 -18 -10 11 -7 4 -10 -26 -10 -45 0 -57 -13 -47 -49 4 -16 11
-20 24 -16 26 8 59 -3 59 -20 0 -8 -15 -17 -34 -20 -26 -5 -41 -2 -64 15 -26
19 -39 22 -84 17 -29 -4 -91 -8 -138 -10 -85 -3 -144 -19 -177 -49 -10 -9 -34
-23 -53 -31 -32 -15 -90 -60 -90 -71 0 -2 18 -7 40 -11 39 -7 138 16 167 38
13 9 33 2 33 -13 0 -20 35 -50 57 -50 13 0 23 4 23 8 0 5 21 19 46 32 44 22
48 22 81 6 38 -18 79 -21 88 -6 3 6 19 10 36 10 16 0 37 4 47 9 9 5 35 14 57
21 28 8 48 23 63 47 22 33 23 35 4 40 -11 2 -25 16 -31 30 -10 22 -9 25 8 30
11 3 23 13 26 22 6 19 50 42 62 31 15 -14 73 -20 73 -8 0 6 10 2 23 -10 13
-12 28 -22 35 -22 14 0 32 -32 32 -59 0 -24 19 -38 30 -22 9 16 0 61 -12 61
-6 0 -8 6 -5 14 3 8 -1 17 -9 20 -26 10 -14 23 29 31 38 8 85 8 177 1 19 -2
46 1 60 5 14 5 46 11 73 14 27 4 47 11 47 18 0 14 27 40 55 52 27 11 79 15
212 18 124 2 160 16 93 36 -36 11 -39 14 -25 27 23 23 67 34 210 49 165 18
216 19 241 1 19 -15 19 -15 -1 -30 -17 -14 -18 -17 -5 -26 8 -5 27 -7 43 -4
20 4 27 2 27 -10 0 -20 34 -29 78 -21 l37 8 -28 8 c-16 4 -35 5 -43 2 -10 -3
-14 2 -14 18 0 37 10 45 73 63 61 18 77 14 100 -21 4 -7 20 -13 34 -13 17 0
23 -4 20 -13 -3 -8 -1 -20 4 -28 7 -11 9 -11 9 4 0 9 5 17 11 17 6 0 8 -7 5
-16 -5 -13 -1 -14 25 -9 25 6 31 4 36 -14 3 -12 12 -21 20 -21 8 0 11 -4 8
-10 -3 -5 -16 -10 -27 -10 -32 0 -98 -32 -98 -47 0 -7 -12 -18 -27 -24 -16 -6
-35 -16 -43 -24 -15 -13 -50 -20 -163 -30 -34 -4 -77 -11 -95 -17 -39 -12 -64
-15 -228 -28 -66 -5 -127 -10 -135 -12 -8 -2 -13 3 -12 10 4 17 -16 15 -24 -3
-7 -20 -60 -48 -73 -40 -6 4 -8 10 -5 15 8 12 -16 25 -24 13 -14 -22 -247 -79
-283 -70 -11 3 -59 1 -107 -4 -47 -5 -110 -10 -138 -11 -45 -1 -53 -4 -53 -21
0 -10 9 -21 20 -24 28 -7 25 -31 -5 -45 -14 -6 -25 -15 -25 -19 0 -14 33 -19
47 -7 12 10 14 9 11 -7 -3 -18 6 -19 147 -21 83 -2 179 -6 215 -10 36 -4 68
-7 72 -6 11 2 27 -23 30 -51 2 -15 7 -28 11 -28 21 -3 47 11 47 24 0 9 9 18
19 22 23 7 113 -14 123 -28 13 -20 65 -11 94 16 30 28 42 31 93 21 38 -8 40
-30 6 -46 -33 -15 -30 -50 5 -59 l25 -6 -28 -12 c-16 -6 -44 -11 -63 -11 -19
0 -76 -16 -125 -35 -54 -21 -109 -35 -135 -35 -46 0 -103 27 -97 47 2 6 -1 14
-6 18 -6 3 -11 1 -11 -5 0 -7 -15 -10 -40 -9 -21 2 -42 0 -46 -4 -4 -4 -13 -7
-20 -7 -10 0 -12 11 -8 44 4 28 2 46 -5 50 -14 9 -121 -12 -121 -23 0 -4 -18
-13 -40 -20 -22 -6 -40 -17 -40 -23 0 -7 -5 -6 -15 2 -19 16 -34 5 -17 -12 7
-7 12 -28 12 -47 0 -27 3 -32 10 -21 5 8 7 24 5 35 -3 11 -2 14 1 8 3 -7 15
-13 27 -13 32 -1 64 -27 50 -41 -9 -9 -8 -18 4 -35 18 -27 12 -31 -11 -8 -9 8
-16 11 -16 5 0 -5 7 -17 16 -26 13 -13 19 -13 32 -3 18 15 54 17 65 3 6 -6 10
-6 14 3 6 15 35 16 51 0 9 -9 12 -9 12 1 0 9 5 8 16 -3 19 -19 36 -20 53 -3
11 10 13 6 9 -20 -2 -18 0 -29 5 -26 5 3 27 0 49 -8 32 -10 36 -14 22 -19 -15
-6 -11 -10 20 -20 28 -9 41 -9 49 -1 9 9 8 14 -3 21 -11 7 -12 10 -2 10 8 0
16 -9 19 -20 5 -18 14 -20 102 -21 53 -1 100 -1 106 1 5 1 43 3 85 5 146 6
246 18 288 36 32 14 79 20 192 24 142 5 149 5 160 -15 8 -16 21 -20 60 -20 26
0 50 5 52 11 2 6 41 13 88 15 83 5 260 40 270 54 6 9 94 30 143 35 27 2 37 -1
37 -11 0 -8 -5 -14 -11 -14 -5 0 -7 -5 -4 -10 4 -6 1 -18 -6 -27 -12 -14 -7
-15 54 -11 37 2 67 0 67 -4 0 -4 18 -8 40 -8 23 0 40 -5 40 -11 0 -8 5 -8 15
1 9 8 25 10 42 5 41 -10 63 -14 113 -21 63 -9 72 -17 25 -26 -65 -11 -115 -9
-115 5 0 6 -7 3 -16 -8 -15 -21 -16 -21 -76 -23 -23 -1 -46 -10 -58 -22 -11
-11 -26 -20 -33 -20 -7 0 -37 -9 -67 -20 -30 -11 -62 -20 -70 -20 -9 0 -20
-14 -25 -32 -7 -24 -21 -38 -50 -52 -22 -10 -47 -24 -55 -31 -8 -7 -39 -16
-67 -20 -29 -4 -55 -11 -59 -16 -3 -5 -23 -9 -45 -9 -21 0 -39 -4 -39 -10 0
-5 -12 -13 -27 -16 -16 -4 -31 -12 -35 -18 -12 -17 -9 -38 3 -31 17 11 79 -5
79 -20 0 -8 -17 -19 -40 -25 -22 -6 -40 -15 -40 -19 0 -5 -21 -12 -47 -15 -84
-10 -97 -13 -153 -35 -30 -11 -62 -21 -71 -21 -9 0 -22 -6 -29 -14 -6 -8 -19
-12 -28 -9 -15 6 -15 5 -3 -10 12 -15 10 -17 -27 -17 -22 0 -42 4 -44 10 -5
14 -127 -6 -147 -24 -10 -9 -34 -16 -54 -16 -20 0 -37 -4 -37 -10 0 -5 -5 -10
-12 -10 -6 0 -21 -9 -33 -20 -12 -11 -42 -23 -71 -26 -27 -4 -56 -13 -65 -21
-9 -7 -45 -18 -80 -23 -98 -14 -129 -22 -129 -30 0 -4 -37 -11 -82 -14 -143
-9 -168 -15 -168 -39 0 -54 -9 1 -19 118 -7 72 -14 138 -17 148 -5 15 3 17 73
17 112 0 113 1 120 141 6 118 -1 213 -17 239 -7 11 -36 15 -113 18 -96 4 -107
2 -126 -17 -12 -12 -21 -32 -21 -45 0 -30 -17 -43 -23 -19 -4 14 -5 13 -6 -4
0 -13 4 -23 9 -23 6 0 10 -11 10 -25 0 -29 -15 -33 -29 -7 -5 10 -28 40 -50
67 -32 38 -41 58 -43 94 -2 35 -7 47 -21 49 -10 2 -24 -3 -30 -12 -10 -13 -12
-8 -12 28 0 24 3 42 8 39 4 -2 7 1 7 6 0 6 -6 11 -12 11 -9 0 -8 4 2 10 12 7
13 13 3 27 -6 10 -16 17 -22 16 -6 -2 -11 2 -11 7 0 6 -6 10 -14 10 -23 0 -28
17 -10 34 8 9 11 16 5 16 -6 0 -8 7 -5 15 4 9 -3 23 -17 33 l-22 19 32 6 c18
4 37 4 42 1 5 -3 9 -1 9 4 0 14 -52 22 -72 11 -23 -13 -23 -25 2 -46 24 -21
26 -33 4 -33 -9 0 -18 9 -21 20 -6 24 -12 25 -43 3 -33 -23 -38 -31 -33 -57 4
-17 3 -18 -6 -6 -8 11 -13 12 -19 3 -4 -6 -73 -18 -157 -28 -83 -9 -168 -21
-190 -26 -22 -4 -62 -9 -90 -9 -27 0 -88 -7 -135 -15 -47 -9 -166 -28 -265
-43 -169 -26 -180 -29 -183 -50 -5 -30 -27 -28 -62 8 -16 16 -31 26 -34 21 -3
-5 1 -14 9 -21 27 -23 17 -37 -31 -43 -25 -2 -49 -9 -54 -13 -4 -5 -10 -49
-12 -99 l-3 -90 25 0 c22 0 25 -5 28 -42 3 -34 0 -42 -18 -48 -11 -3 -26 -18
-34 -33 -13 -26 -25 -165 -26 -312 0 -49 -3 -61 -12 -52 -9 9 -16 8 -30 -5
-14 -13 -18 -13 -19 -2 0 8 -4 6 -8 -5 -6 -16 -10 -10 -20 29 -7 27 -18 53
-25 59 -19 16 -56 128 -56 169 0 24 -6 40 -19 49 -16 11 -93 194 -116 278 -7
26 -14 41 -60 149 -15 35 -31 91 -35 124 -5 43 -12 64 -27 76 -18 14 -123 270
-123 299 0 6 -16 31 -35 57 -32 41 -34 47 -20 61 8 9 15 11 15 5 0 -6 4 -11 9
-11 9 0 26 74 23 104 -4 34 -101 150 -152 180 -39 24 -50 36 -52 60 -2 22 -11
35 -31 44 -24 12 -28 18 -22 39 4 16 2 22 -4 18 -6 -3 -19 -1 -30 5 -13 7 -22
7 -26 0 -11 -18 -21 -11 -30 23 -7 22 -16 32 -30 32 -11 1 -25 3 -30 6 -31 19
-64 17 -114 -6 -66 -31 -69 -31 -82 3 -35 91 -48 283 -28 415 13 84 20 96 41
65 24 -36 58 -72 58 -62 0 5 8 -6 17 -24 10 -21 19 -29 23 -22 4 7 14 -5 24
-29 8 -23 20 -41 26 -41 5 0 10 -5 10 -11 0 -16 43 -103 53 -107 4 -2 7 -10 7
-18 0 -8 4 -14 8 -14 4 0 13 -20 20 -46 8 -30 16 -43 24 -38 8 5 9 2 5 -9 -3
-10 -2 -17 3 -17 5 0 7 -7 4 -15 -4 -8 -2 -15 4 -15 5 0 12 -13 15 -29 5 -26
28 -38 34 -18 5 15 -10 67 -19 67 -5 0 -6 10 -3 21 5 15 4 19 -4 15 -10 -7
-12 -2 -15 37 -1 6 -6 15 -13 19 -6 5 -25 38 -42 74 -46 99 -115 197 -191 272
l-68 67 0 109 c1 92 -1 110 -16 118 -14 8 -16 26 -15 130 1 71 -2 123 -8 127
-6 3 -13 15 -17 26 -3 11 -18 33 -33 50 -17 18 -26 38 -25 52 2 13 -1 23 -7
23 -6 0 -11 5 -11 10 0 6 7 10 15 10 8 0 15 5 15 10 0 6 -9 10 -21 10 -18 0
-20 4 -15 25 5 18 2 25 -9 25 -8 0 -15 5 -15 10 0 6 9 10 20 10 26 0 26 26 -1
40 -17 9 -24 8 -38 -8 -17 -20 -17 -20 -40 8 -12 16 -47 45 -77 65 -30 20 -54
38 -54 41 0 11 41 2 46 -11z m-196 -346 c0 -8 4 -8 13 -1 26 21 157 -31 157
-62 0 -7 7 -19 15 -26 25 -20 18 -27 -41 -39 -51 -10 -58 -9 -70 7 -7 9 -14
20 -14 25 0 4 -6 7 -13 7 -8 0 -22 9 -32 20 -10 11 -13 20 -7 20 6 0 12 -6 15
-12 2 -7 7 -10 10 -7 4 3 -7 22 -24 42 -17 20 -26 37 -20 37 6 0 11 -5 11 -11z
m-11810 -161 c0 -4 10 -8 22 -8 25 0 98 -75 98 -102 0 -10 -5 -18 -11 -18 -6
0 -9 -6 -6 -14 7 -18 -17 -28 -32 -13 -7 7 -17 7 -36 -1 -16 -8 -33 -8 -49 -2
-13 5 -37 7 -53 5 -15 -2 -34 -4 -41 -4 -7 -1 -20 -10 -29 -21 -10 -11 -27
-20 -38 -20 -11 0 -27 -5 -35 -10 -12 -8 -12 -10 5 -10 19 -1 19 -2 -1 -10
-28 -11 -174 -12 -174 -1 0 26 -106 33 -151 10 -13 -6 -15 -2 -11 22 3 20 10
29 23 29 11 0 22 7 25 15 4 8 12 15 20 15 8 0 14 5 14 10 0 6 8 10 18 10 9 0
34 13 53 30 26 21 54 32 99 39 35 6 66 14 69 19 6 9 23 15 120 46 43 13 101 4
101 -16z m12252 15 c5 -24 -10 -294 -17 -301 -3 -3 -18 6 -32 21 l-27 26 18
123 c17 115 27 148 46 148 4 0 10 -8 12 -17z m-52 -319 c6 -14 14 -22 20 -19
14 9 12 -32 -5 -145 -8 -52 -15 -126 -15 -165 -1 -85 -13 -71 -29 32 -12 77
-15 263 -5 301 8 29 22 28 34 -4z m-5572 -122 c-9 -2 -24 -15 -34 -29 -15 -24
-15 -27 0 -38 9 -7 16 -20 16 -29 0 -9 5 -16 10 -16 6 0 10 -6 10 -13 0 -9 11
-12 35 -9 34 4 35 3 35 -30 0 -60 -27 -135 -52 -141 -27 -7 -24 -10 -32 36 -4
23 -3 37 4 37 5 0 11 -8 11 -17 1 -17 2 -17 6 0 2 9 9 17 14 17 5 0 9 9 9 20
0 11 -4 20 -10 20 -5 0 -10 6 -10 14 0 8 -7 16 -15 20 -8 3 -15 14 -15 25 0
18 -21 34 -49 35 -17 1 -27 86 -10 86 6 0 9 -7 6 -15 -11 -28 11 -24 23 5 12
28 35 42 55 31 6 -3 2 -7 -7 -9z m-6620 -233 c12 -5 27 -21 33 -36 6 -16 22
-40 36 -55 23 -24 24 -28 10 -34 -32 -12 -24 -24 55 -97 27 -25 30 -71 3 -61
-23 9 -26 -15 -4 -27 18 -9 19 -13 8 -19 -19 -11 -97 -5 -132 9 -16 6 -38 11
-50 11 -22 0 -156 78 -157 91 0 4 11 10 25 13 27 7 35 36 10 36 -17 0 -17 2
-9 23 4 11 15 14 40 10 26 -4 34 -2 34 9 0 9 7 22 17 29 15 13 16 11 11 -13
-3 -16 -2 -29 1 -29 25 -6 93 -4 97 3 3 4 -7 8 -23 8 -42 0 -60 14 -44 34 8
10 9 16 3 16 -20 0 -42 31 -42 59 0 44 7 46 78 20z m12096 -30 c10 -65 71
-197 121 -264 25 -33 45 -64 45 -70 0 -7 -14 -9 -35 -7 -19 2 -35 8 -35 12 0
16 -32 41 -45 36 -7 -2 -20 3 -28 12 -27 30 -63 343 -38 328 4 -3 11 -24 15
-47z m-4874 -28 c27 -10 84 -43 127 -72 136 -92 187 -126 230 -153 50 -30 76
-68 41 -58 -14 3 -19 1 -14 -6 5 -9 -5 -10 -36 -6 -24 3 -62 1 -86 -4 -35 -8
-44 -7 -49 4 -7 18 -42 18 -62 0 -43 -38 -93 -56 -155 -56 -39 0 -66 -4 -68
-11 -4 -11 -221 112 -234 132 -7 12 21 135 42 189 17 43 41 52 68 24 20 -19
53 -10 61 17 8 25 67 26 135 0z m-6080 -48 c0 -12 -5 -23 -11 -23 -7 0 -10
-12 -7 -30 6 -37 -3 -40 -111 -47 -70 -5 -90 -3 -118 13 -29 15 -32 20 -20 29
8 6 16 19 18 30 3 13 15 22 34 26 41 7 55 1 55 -26 0 -13 5 -27 10 -30 14 -9
70 17 70 33 0 27 24 51 52 50 22 -1 28 -6 28 -25z m10090 -125 c0 -37 26 -131
51 -179 9 -19 33 -54 53 -78 43 -52 55 -101 32 -136 -22 -33 -40 -31 -69 8
-32 42 -52 97 -71 190 -18 86 -22 242 -6 232 6 -3 10 -20 10 -37z m-4724 -62
c20 -6 35 -27 48 -69 3 -10 10 -15 16 -12 5 3 10 -1 10 -9 0 -9 -6 -13 -14
-10 -10 4 -15 -12 -20 -62 -6 -56 -4 -69 9 -76 8 -5 13 -14 10 -19 -4 -5 -11
-7 -16 -4 -5 4 -9 2 -9 -4 0 -5 5 -11 11 -13 9 -3 9 -9 1 -24 -5 -10 -8 -33
-5 -49 3 -17 2 -26 -3 -22 -5 5 -16 -25 -25 -65 -9 -40 -19 -84 -23 -98 -6
-19 -5 -21 3 -10 9 13 11 13 11 -2 0 -9 -5 -20 -11 -24 -6 -3 -9 -15 -6 -25 3
-11 2 -17 -3 -14 -4 2 -10 -14 -14 -38 -13 -83 -86 -295 -86 -249 0 17 -25 15
-40 -3 -7 -8 -28 -15 -46 -15 -28 0 -34 -4 -34 -21 0 -18 -2 -19 -15 -9 -12
10 -15 10 -16 -1 0 -10 -2 -11 -6 -1 -7 18 -40 15 -52 -5 -6 -10 -11 -12 -11
-5 0 6 -11 12 -25 12 -14 0 -28 6 -31 13 -4 12 24 154 78 392 17 79 107 335
136 388 28 52 89 107 117 107 10 0 33 -10 52 -21 19 -12 37 -18 41 -15 13 14
-24 61 -56 71 -17 5 -32 13 -32 18 0 4 8 6 18 3 9 -2 26 -7 38 -10z m6146
-195 c2 -17 1 -28 -4 -25 -4 3 -12 3 -17 -1 -15 -9 7 -61 41 -94 26 -26 28
-31 16 -50 -14 -24 -33 -29 -25 -7 3 8 -1 17 -9 20 -10 4 -14 -2 -14 -18 0
-14 6 -26 13 -29 9 -3 8 -8 -4 -18 -10 -8 -20 -24 -23 -35 -5 -17 -3 -22 11
-20 15 1 18 -8 19 -56 1 -42 -3 -63 -16 -78 -21 -25 -30 -25 -30 -2 -1 13 -4
12 -14 -7 -7 -13 -11 -32 -8 -43 5 -20 28 -24 35 -5 6 16 29 -39 34 -83 4 -33
4 -34 -11 -15 -15 20 -15 20 -16 -5 -1 -41 -13 -51 -58 -49 -22 2 -47 -3 -56
-11 -9 -7 -18 -11 -19 -9 -1 2 -9 16 -16 31 -8 16 -19 24 -27 21 -10 -4 -14 5
-14 33 1 34 2 37 13 22 12 -15 14 -15 25 2 6 11 9 32 6 49 -5 25 -3 30 17 33
16 2 25 11 27 24 2 12 11 24 21 27 17 4 18 9 9 48 -6 24 -19 66 -30 92 -32 81
-13 215 20 142 8 -16 19 -25 29 -23 17 3 19 11 29 91 4 30 11 47 20 47 8 0 11
6 8 15 -4 8 -2 15 4 15 5 0 12 -13 14 -29z m-4960 -64 c-3 -13 -7 -15 -12 -7
-10 16 -36 -22 -46 -65 -9 -42 -36 -85 -51 -85 -7 0 -13 -4 -13 -10 0 -5 -31
-41 -68 -80 -69 -70 -97 -117 -107 -179 -5 -30 -4 -33 10 -21 9 7 13 21 10 31
-4 11 -2 19 5 19 6 0 8 -4 5 -10 -3 -5 1 -10 9 -10 27 0 18 -15 -24 -39 -22
-12 -40 -26 -40 -31 0 -5 -17 -14 -37 -21 -21 -6 -42 -15 -48 -19 -53 -38
-277 -69 -375 -51 -36 7 -81 14 -100 16 -38 5 -60 27 -60 59 0 43 92 472 104
483 4 4 19 1 34 -8 15 -8 46 -26 69 -38 l42 -24 23 26 c19 21 40 28 123 41 55
9 159 25 230 36 303 48 309 48 316 25 3 -11 3 -28 1 -38z m5167 -313 c-6 -8
-9 -17 -5 -21 3 -3 6 -1 6 5 0 28 17 8 29 -34 8 -25 19 -48 26 -50 7 -3 23
-33 35 -67 12 -34 27 -75 35 -92 29 -66 28 -72 -5 -71 -28 1 -30 3 -30 42 0
35 -6 47 -35 73 -19 17 -35 37 -35 46 0 8 -4 15 -10 15 -5 0 -9 3 -9 8 1 4 0
9 -1 12 -6 16 -13 115 -11 155 1 26 3 28 12 12 8 -13 7 -22 -2 -33z m-4929 -7
c0 -13 5 -17 19 -12 14 4 20 -1 26 -22 l6 -27 16 32 c12 24 18 29 27 19 19
-19 27 -57 10 -50 -9 3 -14 -2 -14 -16 0 -12 -5 -21 -11 -21 -5 0 -9 -8 -7
-18 3 -21 -21 -72 -34 -72 -4 0 -8 -7 -8 -15 0 -8 -4 -15 -9 -15 -6 0 -9 8 -9
18 1 9 -2 34 -6 54 -5 27 -11 36 -21 31 -17 -6 -19 -36 -5 -64 6 -10 7 -19 2
-19 -14 0 -62 58 -62 74 0 9 -19 21 -47 29 -41 13 -45 16 -26 22 13 4 20 11
17 16 -3 5 2 9 11 9 11 0 15 -5 11 -15 -5 -13 11 -20 30 -12 4 1 10 -8 15 -20
5 -13 13 -23 19 -23 19 0 10 47 -14 73 l-24 26 31 20 c18 12 26 21 19 21 -7 0
-10 4 -7 10 9 15 45 -12 45 -33z m-7127 -26 c9 0 17 -8 17 -16 0 -9 14 -22 31
-29 28 -12 39 -11 93 8 33 12 67 21 74 20 6 -1 22 -2 33 -3 17 -1 19 -4 10
-15 -9 -11 -9 -16 0 -21 20 -13 -13 -26 -51 -20 -22 3 -46 0 -64 -10 -15 -8
-33 -12 -40 -8 -6 4 -15 8 -21 10 -61 12 -115 29 -115 36 0 4 -11 18 -24 30
l-24 22 32 -1 c17 -1 39 -2 49 -3z m6117 -364 c40 -33 51 -56 56 -122 4 -54 2
-75 -13 -102 -31 -58 -98 -38 -134 41 -19 41 -26 122 -10 112 4 -3 6 5 4 18
-9 46 60 84 97 53z m6101 0 c9 -7 24 -38 33 -69 9 -32 25 -72 35 -90 11 -18
24 -52 31 -75 6 -24 24 -72 40 -109 17 -36 30 -76 30 -88 0 -12 7 -31 15 -42
22 -29 20 -74 -4 -74 -13 0 -21 -8 -23 -22 -2 -13 -7 -23 -12 -23 -12 0 -56
125 -56 161 0 17 -8 42 -19 55 -10 13 -37 76 -59 139 -22 63 -46 129 -53 146
-7 18 -9 39 -4 50 4 10 7 27 6 37 -3 20 17 22 40 4z m-6760 -67 c5 0 9 -7 9
-16 0 -14 -3 -14 -15 -4 -9 7 -18 10 -22 6 -3 -3 -1 -6 6 -6 9 0 11 -8 6 -27
-4 -16 -7 -66 -6 -113 1 -114 -6 -123 -57 -74 -32 30 -41 48 -44 79 l-4 40
-13 -32 c-7 -18 -19 -33 -27 -33 -8 0 -14 -6 -14 -14 0 -23 -47 -6 -60 22 -10
22 -9 28 6 39 10 7 21 13 25 13 4 0 10 10 14 23 6 19 8 20 12 4 4 -16 8 -15
33 11 15 16 39 32 52 35 14 4 38 24 54 44 22 30 29 34 32 20 2 -9 8 -17 13
-17z m6551 -110 c22 -74 53 -176 68 -226 49 -154 68 -237 63 -276 -5 -35 -5
-36 -24 -17 -10 10 -19 26 -19 35 0 9 -5 12 -12 8 -8 -5 -9 -2 -5 9 3 10 2 17
-3 17 -6 0 -10 12 -10 26 0 14 -6 38 -14 52 -25 48 -40 110 -29 124 14 18 11
110 -4 115 -6 2 -13 -2 -16 -9 -2 -7 -2 -3 0 10 2 15 -2 22 -12 22 -8 0 -15 8
-15 18 0 10 -12 29 -27 42 -33 30 -53 81 -53 137 0 48 6 55 44 51 28 -3 30 -6
68 -138z m-13632 -210 c3 -4 15 -10 28 -14 12 -4 22 -14 22 -22 0 -8 7 -14 16
-12 10 2 19 -2 21 -7 6 -19 -324 6 -404 30 -26 8 -49 12 -53 10 -3 -2 -12 1
-20 6 -10 6 39 7 131 4 126 -5 148 -3 159 10 10 12 23 15 54 9 23 -3 43 -10
46 -14z m12942 -203 c7 -23 14 -44 18 -47 3 -3 7 -12 9 -20 2 -8 7 -28 12 -44
l8 -29 -68 7 c-88 9 -95 1 -88 -97 2 -39 1 -83 -4 -96 -6 -14 -6 -28 0 -35 14
-17 24 -156 11 -156 -14 0 19 -34 47 -49 12 -6 41 -11 65 -11 36 -1 40 -2 24
-11 -10 -6 -35 -9 -55 -5 -25 4 -31 2 -21 -4 23 -15 100 -12 100 3 0 6 10 0
23 -14 27 -31 51 -41 66 -26 8 8 11 -17 11 -96 l0 -106 31 4 c17 2 34 6 37 9
8 8 -68 220 -84 232 -8 6 -14 16 -14 22 0 10 -27 14 -100 13 -82 -1 -110 35
-110 142 0 59 14 61 29 2 6 -25 15 -44 19 -44 20 3 22 -3 7 -18 -16 -15 -15
-17 9 -30 19 -10 31 -11 46 -3 35 19 41 43 24 106 -21 86 -24 87 -20 9 l5 -70
-14 65 c-7 36 -17 98 -20 137 -4 40 -11 71 -14 68 -4 -2 -2 -50 5 -107 7 -57
13 -116 13 -133 -1 -49 -17 1 -19 55 0 25 -7 72 -14 105 l-12 60 -8 -47 c-6
-41 -28 -69 -40 -50 -4 7 -9 94 -7 141 1 25 -7 24 140 11 2 0 1 -7 -2 -15 -4
-8 -2 -17 3 -20 6 -4 10 -1 10 4 0 20 37 -26 44 -54 5 -20 2 -31 -11 -41 -17
-13 -17 -15 0 -28 9 -7 17 -18 17 -25 0 -6 5 -11 10 -11 6 0 9 -3 8 -7 -5 -14
26 -98 44 -121 9 -13 29 -63 44 -110 14 -48 51 -159 81 -247 30 -88 77 -227
105 -310 28 -82 61 -178 74 -212 18 -49 20 -63 9 -63 -8 0 -17 5 -20 10 -9 14
-23 13 -28 -2 -2 -7 -3 -5 -1 5 3 19 -26 77 -38 77 -5 0 -8 -45 -8 -99 0 -108
-5 -131 -26 -131 -17 0 -17 13 -3 80 10 45 9 54 -7 71 -21 24 -42 25 -40 2 1
-17 -7 -19 -56 -15 -11 1 -18 10 -18 21 0 11 -4 23 -10 26 -11 7 -25 -39 -15
-54 3 -6 -1 -11 -9 -11 -21 0 -32 -46 -16 -65 7 -9 14 -30 16 -49 4 -33 3 -33
-42 -40 -26 -3 -80 -6 -121 -6 -64 0 -74 2 -69 16 3 9 6 20 6 25 0 5 7 9 15 9
12 0 35 28 35 44 0 3 -11 6 -24 6 -37 0 -56 10 -56 31 0 10 4 19 10 19 5 0 9
-3 9 -7 -5 -29 3 -34 54 -31 l52 3 -2 33 c-3 71 126 151 245 152 28 0 52 4 52
9 0 11 -41 22 -66 17 -29 -6 -422 -30 -434 -27 -3 0 -7 79 -10 175 -4 141 -8
177 -21 192 -9 11 -19 43 -21 72 -5 48 -3 52 13 47 11 -4 19 -2 19 4 0 6 5 11
11 11 6 0 9 -7 5 -15 -5 -13 2 -15 42 -11 26 3 54 1 62 -4 12 -8 12 -10 -3
-10 -10 0 -16 -4 -13 -8 7 -12 127 4 136 18 6 9 12 9 28 -1 12 -7 23 -11 26
-9 2 3 1 39 -4 80 -6 54 -5 77 3 82 21 14 -14 28 -37 16 -11 -6 -42 -13 -70
-17 -40 -5 -53 -11 -61 -29 -6 -14 -15 -20 -25 -16 -29 12 -92 14 -111 3 -15
-7 -18 -16 -13 -32 4 -12 12 -25 18 -29 6 -4 4 -9 -7 -14 -24 -9 -27 -5 -30
47 -2 24 -8 43 -13 42 -5 0 -20 14 -34 33 -40 54 -55 42 -53 -41 1 -39 4 -96
7 -128 4 -44 1 -60 -10 -70 -50 -40 -54 -48 -54 -96 0 -62 -10 -111 -22 -111
-16 0 1 172 18 191 8 8 14 25 14 37 0 12 8 26 18 31 17 9 18 17 10 78 -5 37
-6 82 -3 98 3 17 15 84 25 150 20 125 32 194 78 430 l28 140 34 5 c19 3 58 3
87 2 52 -4 53 -4 65 -45z m2610 -109 c-3 -39 -1 -48 12 -48 12 0 16 -10 16
-43 0 -24 3 -100 6 -168 5 -111 4 -122 -9 -106 -9 10 -23 53 -32 95 -29 131
-63 172 -144 172 -43 0 -257 -23 -326 -35 -35 -6 -109 -70 -119 -103 -4 -12
-16 -26 -26 -32 -17 -9 -19 -2 -25 96 -8 117 -2 133 62 160 50 21 73 18 73
-10 0 -13 6 -28 13 -34 14 -12 94 -18 117 -9 8 3 45 8 82 10 37 2 71 7 75 10
3 4 19 7 33 7 32 0 47 15 52 50 3 22 9 26 53 31 89 11 90 10 87 -43z m295 4
c20 -16 22 -34 37 -242 9 -124 19 -237 22 -252 3 -17 1 -28 -5 -28 -6 0 -11 6
-11 14 0 7 -6 19 -14 26 -8 6 -12 18 -9 26 3 8 -4 22 -15 32 -16 14 -21 38
-31 157 -9 124 -15 256 -12 278 2 11 14 8 38 -11z m-2675 -39 c67 -73 184
-251 272 -415 33 -62 36 -74 41 -180 8 -157 23 -247 45 -286 20 -33 29 -152
13 -152 -14 0 -71 132 -108 245 -19 61 -35 113 -35 118 0 4 16 7 35 7 34 0 35
2 36 38 2 53 -1 91 -8 137 l-6 40 -12 -29 c-12 -27 -12 -28 -18 -6 l-6 22 -22
-20 c-17 -17 -25 -19 -40 -9 -11 7 -19 16 -19 22 0 5 -7 23 -15 38 -8 15 -17
45 -21 65 -4 20 -11 42 -16 49 -5 7 -6 18 -2 24 5 8 3 9 -5 5 -18 -12 -40 24
-41 65 0 43 -37 157 -58 182 -9 10 -24 16 -35 13 -13 -3 -17 0 -13 9 6 16 -19
39 -34 30 -5 -3 -10 -4 -10 -1 0 2 -3 11 -6 20 -5 12 0 16 19 16 16 0 39 -16
69 -47z m657 -83 c10 0 41 -73 41 -96 1 -10 14 -44 30 -74 17 -30 30 -63 30
-72 0 -9 4 -27 9 -40 6 -13 22 -63 37 -113 14 -49 44 -148 66 -220 21 -71 46
-155 54 -185 9 -30 28 -95 44 -145 39 -124 57 -205 45 -205 -2 0 -15 5 -29 11
-31 14 -21 -13 -140 379 -176 581 -182 599 -207 626 -20 22 -72 168 -62 177 2
3 21 -6 40 -19 20 -13 39 -24 42 -24z m733 -72 c6 -51 11 -122 12 -157 l1 -64
-38 -1 c-27 -1 -37 3 -37 14 0 20 15 42 26 40 18 -3 14 19 -7 39 -15 14 -19
25 -14 38 7 16 8 15 14 -6 10 -39 29 -37 29 4 0 19 -4 35 -9 35 -5 0 -9 7 -9
16 0 10 -6 14 -15 10 -8 -3 -15 0 -15 6 0 6 -8 17 -17 24 -17 13 -16 15 9 34
14 11 30 34 33 51 12 52 27 18 37 -83z m-13912 68 c41 -9 87 -16 101 -16 15 0
32 -6 39 -14 6 -8 18 -12 26 -9 15 5 19 -13 8 -41 -8 -21 -149 -23 -157 -2 -5
13 -116 36 -202 42 -39 3 -187 33 -194 39 -10 11 74 16 95 6 34 -15 75 -14
115 4 36 16 53 15 169 -9z m15117 -726 c6 -96 16 -221 20 -278 7 -80 6 -105
-4 -114 -17 -14 -16 -33 2 -48 8 -7 15 -25 15 -41 0 -22 -5 -29 -20 -29 -13 0
-20 7 -20 20 0 11 -6 19 -12 18 -7 -2 -12 3 -10 10 1 6 -3 12 -9 12 -6 0 -9
-9 -6 -20 3 -13 0 -20 -9 -20 -8 0 -14 -4 -14 -9 0 -10 -94 -16 -540 -36 -286
-13 -695 -33 -780 -38 -24 -2 -25 1 -31 73 -3 41 -12 133 -18 204 -7 70 -10
130 -8 132 2 2 17 7 34 10 l31 6 6 -53 c3 -30 8 -98 12 -152 5 -84 4 -101 -11
-117 -18 -20 -13 -40 11 -40 8 0 12 -4 9 -10 -3 -5 -1 -10 4 -10 6 0 11 4 11
9 0 5 69 12 153 15 83 4 233 13 332 21 99 8 290 17 425 20 135 3 263 11 285
17 22 6 47 11 55 10 9 0 25 15 38 34 26 40 27 80 6 209 -8 50 -16 106 -18 125
-2 19 -6 42 -9 50 -3 8 -7 50 -10 92 -4 84 8 112 48 106 19 -3 21 -15 32 -178z
m-3046 -1 c16 -11 29 -16 29 -10 0 6 5 11 10 11 6 0 10 -53 10 -140 l0 -140
-75 0 -75 0 0 51 c0 31 6 56 15 65 14 15 11 44 -6 44 -5 0 -9 24 -9 54 0 45 4
58 22 70 30 21 44 20 79 -5z m-10611 -240 c0 -38 -24 -49 -102 -47 -35 1 -93
-2 -130 -7 -82 -10 -123 4 -131 43 -7 37 4 45 43 28 23 -9 43 -11 64 -5 17 5
64 9 103 9 40 0 73 3 73 8 0 4 18 6 40 4 36 -4 40 -7 40 -33z m10670 -73 c0
-16 -14 -36 -26 -36 -8 0 -14 -5 -14 -11 0 -6 7 -9 15 -5 12 4 15 -4 15 -39 0
-31 -4 -44 -12 -42 -8 1 -14 -11 -16 -28 -2 -16 -11 -35 -20 -41 -14 -10 -15
-17 -6 -43 12 -32 5 -96 -11 -96 -5 0 -11 9 -13 20 -6 28 -21 45 -37 39 -18
-7 -24 29 -27 166 l-3 105 65 6 c36 3 71 6 78 7 6 1 12 0 12 -2z m290 -48
c-14 -6 -43 -18 -65 -27 -22 -9 -55 -31 -73 -50 -29 -30 -37 -33 -53 -23 -25
16 -47 15 -45 0 0 -7 -3 -15 -9 -18 -6 -3 -11 20 -13 57 l-3 62 68 4 c156 8
219 6 193 -5z m-5619 -219 c-24 -75 -51 -210 -51 -256 0 -17 -5 -35 -11 -39
-7 -4 -10 4 -8 22 2 16 0 35 -5 42 -11 18 3 94 16 86 7 -4 7 2 3 17 -5 13 -9
39 -11 57 -3 45 -12 51 -34 25 -10 -13 -26 -23 -36 -23 -11 0 0 16 36 50 29
28 55 50 57 50 3 0 16 9 30 20 15 11 28 18 30 16 2 -2 -5 -32 -16 -67z m8478
-33 c107 -98 133 -125 127 -134 -3 -5 1 -15 9 -22 9 -8 15 -8 15 -2 0 6 -6 13
-12 15 -8 3 -8 6 -2 6 12 1 21 -6 176 -147 58 -53 107 -102 107 -109 1 -6 5
-13 9 -15 5 -1 12 -18 15 -36 5 -25 3 -32 -6 -29 -6 2 -11 10 -9 16 1 7 -2 10
-6 7 -5 -3 -22 6 -36 19 -15 14 -30 25 -34 25 -4 0 -45 32 -92 71 -47 39 -125
99 -175 135 -49 35 -102 75 -117 89 -29 25 -36 49 -18 60 15 9 12 62 -5 79 -8
8 -15 17 -15 21 0 10 22 -5 69 -49z m-3174 -96 c-3 -5 -1 -10 4 -10 6 0 11 5
11 11 0 6 17 9 43 7 l42 -3 -2 -40 c-1 -22 -2 -43 -2 -46 -2 -11 -98 -20 -140
-13 -41 6 -41 7 -41 50 0 36 3 43 23 47 43 8 68 7 62 -3z m-5410 -210 c-8 -13
18 -13 31 0 6 6 10 1 12 -17 3 -33 12 -44 12 -14 0 22 1 22 29 -6 28 -28 32
-42 51 -158 13 -74 4 -105 -16 -55 l-13 35 5 -37 c4 -25 2 -38 -5 -38 -6 0
-11 6 -11 13 -1 6 -7 -1 -14 -18 -9 -21 -10 -36 -3 -53 8 -16 7 -26 -1 -34 -9
-9 -12 -6 -12 12 l-1 25 -14 -25 c-11 -20 -15 -22 -20 -9 -3 8 -1 27 4 42 7
17 7 28 1 32 -6 4 -14 -5 -20 -20 -5 -14 -19 -35 -30 -47 -16 -18 -20 -19 -20
-6 0 9 6 19 13 21 9 4 8 8 -3 16 -12 8 -16 4 -22 -22 -4 -21 -6 -10 -5 34 2
66 2 66 -26 66 -19 0 -24 -4 -17 -11 14 -14 12 -43 -6 -82 -15 -31 -15 -40 0
-111 14 -68 14 -95 2 -82 -12 12 -29 193 -29 321 0 122 -3 144 -13 130 -11
-15 -13 -13 -11 13 2 19 8 30 17 30 8 0 15 8 15 17 0 10 5 17 10 15 5 -1 9 -8
7 -15 -3 -10 1 -11 17 -3 13 7 18 18 15 29 -4 13 -2 12 8 -3 15 -23 38 -31 38
-12 0 7 5 18 12 25 15 15 21 16 13 2z m-302 -47 c3 9 11 17 16 17 6 0 8 -6 5
-14 -6 -17 11 -16 43 2 29 16 33 15 33 -7 0 -10 6 -21 13 -24 18 -7 19 -53 2
-67 -8 -7 -15 -21 -15 -31 0 -12 -10 -23 -25 -29 -14 -5 -25 -13 -25 -18 0 -5
-6 -9 -12 -9 -7 -1 -43 -3 -80 -6 -74 -5 -95 6 -83 44 5 14 2 25 -6 30 -24 15
-28 10 -22 -26 l6 -36 -37 3 c-25 1 -36 7 -36 18 -1 9 -6 6 -15 -10 -14 -25
-14 -25 -15 -2 0 26 -20 31 -20 5 0 -15 -2 -15 -9 -4 -7 11 -12 6 -19 -20
l-10 -34 -1 30 c-1 23 -4 27 -11 15 -5 -8 -10 -26 -11 -40 0 -14 -3 -19 -6
-12 -2 6 -11 12 -19 12 -9 0 -13 4 -10 9 3 4 -7 6 -22 4 -21 -4 -24 -2 -12 6
10 7 11 11 3 11 -7 0 -13 9 -13 21 0 11 -4 17 -10 14 -5 -3 -10 -15 -10 -26 0
-14 -7 -19 -29 -19 -16 0 -31 6 -34 13 -3 6 -10 0 -16 -16 l-11 -28 -26 20
c-22 18 -29 19 -38 7 -16 -20 -64 -26 -70 -10 -8 22 -26 16 -27 -8 0 -13 -3
-17 -6 -9 -5 11 -7 11 -14 0 -7 -11 -9 -10 -9 3 0 11 -5 15 -14 12 -7 -3 -16
2 -19 10 -5 13 -11 14 -31 5 -14 -7 -22 -17 -19 -25 3 -8 1 -14 -5 -14 -9 0
-22 29 -26 55 -2 16 -41 11 -42 -5 -1 -8 -2 -21 -3 -29 -1 -11 -7 -9 -21 7
l-21 22 -22 -24 c-20 -21 -25 -22 -42 -10 -24 18 -35 18 -35 -1 0 -12 -9 -13
-46 -8 -27 3 -49 2 -52 -4 -11 -16 -142 -25 -142 -10 0 7 -9 13 -21 13 -14 0
-19 -5 -16 -18 3 -10 1 -21 -4 -24 -15 -9 -11 102 5 115 7 6 16 30 20 52 5 30
10 39 21 35 10 -4 15 2 16 17 1 17 2 18 6 4 2 -10 12 -16 21 -15 9 2 16 -3 15
-9 -2 -7 2 -13 7 -13 6 0 10 4 10 9 0 5 10 9 23 8 12 0 30 3 40 7 10 5 17 4
17 -3 0 -6 -4 -11 -10 -11 -5 0 -10 -6 -10 -14 0 -8 -8 -17 -17 -19 -14 -4
-13 -5 4 -6 13 -1 24 6 27 17 3 10 19 26 36 35 29 18 30 18 30 -2 0 -12 5 -21
10 -21 6 0 10 5 10 11 0 5 5 7 10 4 6 -3 10 1 10 10 0 14 5 13 31 -6 27 -19
30 -19 27 -4 -2 15 5 19 34 20 32 2 37 -1 44 -24 4 -14 6 -30 5 -35 -1 -5 5
-3 14 4 16 13 15 15 -1 27 -10 7 -13 13 -7 13 6 0 19 3 29 7 13 5 16 3 11 -10
-4 -11 -1 -17 7 -17 20 0 25 -33 9 -49 -17 -16 -10 -26 12 -17 13 4 15 14 10
38 -6 31 -5 32 10 14 8 -11 13 -28 9 -38 -3 -10 -1 -18 5 -18 17 0 13 70 -4
76 -8 4 -15 16 -15 28 1 19 2 18 18 -7 11 -19 23 -26 35 -23 14 3 17 0 13 -12
-5 -13 -3 -12 9 2 9 12 15 15 15 7 0 -10 3 -11 14 -2 11 9 15 9 19 -1 4 -10 8
-10 14 -1 12 16 63 35 80 29 8 -3 13 2 13 14 0 19 1 19 19 3 11 -9 18 -19 16
-22 -1 -3 7 -7 20 -7 15 -1 26 5 31 20 6 16 8 11 11 -24 l4 -45 21 25 c13 16
18 19 14 8 -6 -21 9 -24 21 -5 13 21 83 70 83 58 0 -6 -4 -11 -10 -11 -5 0
-10 -7 -10 -16 0 -14 3 -14 15 -4 8 7 15 21 15 32 0 13 5 18 14 15 9 -4 17 1
19 11 3 12 5 11 6 -5 1 -25 17 -31 24 -10 2 6 7 -6 11 -28 11 -55 20 -66 26
-31 5 29 26 38 24 10 -1 -8 2 -14 7 -14 5 0 9 4 9 9 0 5 3 17 7 27 5 13 3 15
-7 9 -9 -6 -11 -4 -6 4 5 7 15 10 23 7 10 -4 13 -2 10 8 -8 21 58 26 79 6 9
-8 14 -9 10 -2 -4 6 -4 17 0 24 5 8 9 6 14 -7 6 -17 7 -17 13 -2z m-3410 -401
c-26 -25 -32 -36 -24 -46 6 -8 9 -21 5 -30 -7 -18 -25 -22 -21 -5 4 19 -20 21
-37 4 -9 -9 -16 -12 -16 -6 0 6 -7 11 -15 11 -8 0 -15 5 -15 11 0 6 9 9 20 6
24 -6 25 -1 6 19 -8 8 -26 14 -39 14 -20 0 -24 -4 -20 -19 3 -13 -2 -21 -16
-26 -23 -7 -44 2 -36 15 3 5 -5 10 -17 13 -17 3 -11 6 21 12 29 5 45 14 48 25
5 19 83 37 154 36 l36 0 -34 -34z m10660 -1491 c-14 -9 -24 -41 -13 -41 6 0
10 6 10 14 0 8 5 18 10 21 14 8 38 -17 32 -34 -2 -7 2 -17 9 -22 8 -5 9 -9 4
-9 -9 0 -14 -106 -5 -120 4 -8 9 -49 15 -140 2 -47 7 -118 10 -157 3 -41 1
-73 -4 -73 -15 0 -35 109 -36 200 -2 110 -15 230 -26 230 -5 0 -9 14 -9 30 0
20 -5 30 -15 30 -8 0 -15 7 -15 15 0 8 -4 15 -10 15 -5 0 -10 -5 -10 -11 0 -5
-4 -7 -10 -4 -18 11 -11 24 16 31 16 4 22 9 14 14 -8 5 -7 9 4 13 9 4 16 14
16 24 1 17 1 17 11 -1 7 -11 8 -21 2 -25z m-101 -63 c-3 -12 -1 -19 4 -15 6 3
15 -7 21 -23 9 -25 8 -29 -14 -39 -22 -10 -23 -9 -13 8 12 24 14 49 1 36 -14
-16 -21 -59 -12 -74 7 -10 13 -8 30 10 l21 23 0 -31 c0 -17 7 -36 16 -44 16
-13 16 -21 -4 -155 -11 -68 -38 -106 -70 -97 -19 5 -27 17 -51 76 -17 42 -26
193 -12 201 7 5 11 -1 12 -16 l0 -23 10 23 c5 13 13 20 19 17 6 -4 8 -11 5
-16 -8 -12 23 -44 33 -34 4 3 -1 11 -10 16 -10 5 -15 16 -11 25 3 8 -2 21 -12
28 -17 12 -17 15 3 58 12 24 22 50 22 56 0 7 4 12 9 12 5 0 7 -10 3 -22z"/>
<path d="M8062 7989 c-13 -5 -28 -6 -33 -3 -6 3 -21 3 -35 0 -23 -6 -25 -11
-23 -49 1 -23 -1 -52 -5 -64 -7 -22 7 -62 28 -75 6 -4 28 -8 49 -8 26 0 37 4
37 15 0 8 5 15 10 15 6 0 10 -7 10 -15 0 -8 7 -15 15 -15 18 0 20 26 3 33 -8
3 -2 9 12 15 49 19 68 103 25 110 -11 2 -31 14 -45 27 -20 18 -30 21 -48 14z"/>
<path d="M4030 6069 c0 -8 -14 -9 -42 -5 -39 6 -41 6 -23 -7 16 -13 17 -17 6
-31 -20 -24 13 -47 56 -40 25 5 34 2 39 -10 3 -9 12 -16 19 -16 17 0 45 -33
45 -53 0 -9 6 -17 13 -18 6 0 31 -2 55 -5 23 -3 42 -1 42 5 0 7 41 21 113 37
4 1 9 3 12 4 3 1 10 3 17 4 6 0 13 8 15 16 4 13 3 13 -6 0 -9 -12 -11 -11 -11
8 0 15 6 22 20 22 11 0 20 6 20 14 0 11 -20 16 -77 20 -175 14 -293 38 -293
58 0 5 -4 8 -10 8 -5 0 -10 -5 -10 -11z"/>
<path d="M4497 4933 c-5 -4 -14 -8 -20 -9 -22 -1 -97 -37 -97 -46 0 -4 11 -6
25 -3 14 3 36 7 50 10 17 4 25 1 25 -9 0 -7 8 -16 18 -19 9 -3 42 -16 72 -27
49 -19 80 -22 282 -25 140 -3 230 0 233 5 4 6 -1 13 -10 16 -11 5 -13 10 -5
19 15 19 1 25 -56 25 -29 0 -54 4 -56 10 -4 14 -156 20 -161 6 -3 -7 -11 -5
-23 5 -18 16 -76 22 -204 23 -26 0 -49 6 -55 14 -6 7 -14 10 -18 5z"/>
<path d="M6549 4793 c-8 -21 -7 -33 1 -47 10 -16 9 -22 -5 -32 -15 -11 -15
-13 7 -25 21 -11 78 -26 120 -32 10 -1 27 -10 38 -19 25 -22 40 -23 40 -3 0
17 55 21 80 5 9 -5 19 -5 27 2 21 17 15 26 -22 38 -27 9 -35 17 -35 36 0 14 7
27 15 31 13 4 12 8 -6 21 -16 11 -38 13 -95 9 -41 -3 -74 -2 -74 3 0 5 -8 11
-17 13 -17 4 -17 5 0 6 36 2 15 21 -23 21 -35 0 -42 -4 -51 -27z"/>
<path d="M4727 4086 l-22 -18 44 -44 c41 -41 47 -44 97 -44 55 0 66 -8 39 -30
-12 -10 -39 -9 -132 0 -85 10 -143 10 -208 3 -72 -8 -92 -7 -100 4 -13 17 -62
26 -70 13 -3 -5 -16 -10 -29 -10 -13 0 -31 -9 -41 -19 -10 -12 -33 -21 -58
-23 -38 -3 -41 -5 -42 -32 0 -27 -4 -30 -60 -44 -32 -8 -65 -21 -73 -28 -7 -8
-18 -14 -23 -14 -5 0 -9 -9 -9 -21 0 -15 -5 -20 -22 -17 -13 2 -21 7 -20 12
13 33 -77 18 -106 -17 -14 -16 2 -25 88 -48 25 -7 58 -22 73 -33 27 -20 27
-21 7 -28 -23 -8 -19 -28 6 -28 8 0 14 -9 14 -20 0 -11 6 -20 14 -20 7 0 27
-7 42 -15 20 -11 54 -15 110 -14 l82 2 -4 43 c-3 25 0 46 7 50 8 4 7 9 -2 15
-25 16 10 28 76 27 64 -1 64 -1 131 64 17 15 23 17 27 7 4 -10 6 -10 6 -1 1 8
22 12 69 12 37 0 85 5 107 11 22 6 65 15 95 19 90 14 120 22 120 30 0 4 8 7
17 6 10 0 22 8 27 20 8 18 16 20 85 17 232 -9 392 -9 397 -1 3 5 12 1 20 -9
13 -17 13 -17 14 5 0 12 7 25 15 28 35 14 21 84 -17 84 -10 0 -18 5 -18 10 0
6 -13 10 -30 10 -16 0 -30 5 -30 11 0 8 -15 10 -47 5 -115 -15 -181 -26 -218
-35 -56 -15 -55 -15 -55 25 0 44 -16 61 -66 70 -21 3 -51 13 -65 20 -18 9 -61
12 -133 11 -87 -2 -110 -5 -129 -21z"/>
<path d="M3480 3923 c0 -17 59 -63 80 -63 6 0 18 -4 28 -9 9 -5 25 -12 35 -15
9 -3 17 -14 17 -25 0 -28 13 -33 95 -34 55 -1 76 3 89 16 9 9 41 24 71 33 52
17 75 44 38 44 -18 0 -85 22 -93 30 -29 29 -168 48 -267 35 -40 -5 -53 -11
-54 -23 0 -12 -3 -11 -9 6 -11 26 -30 29 -30 5z"/>
<path d="M6608 3721 c-4 -12 -11 -20 -17 -17 -5 4 -11 -6 -13 -21 -2 -14 -9
-28 -16 -29 -7 -1 -8 0 -2 3 5 2 10 19 10 36 0 21 -3 28 -9 19 -6 -11 -10 -10
-16 5 -7 16 -9 15 -15 -7 -11 -35 -11 -122 -1 -139 5 -7 13 -11 19 -7 11 7 22
-15 22 -45 0 -10 5 -19 10 -19 6 0 10 10 10 23 0 29 15 51 28 43 15 -9 42 34
37 59 -2 11 -4 26 -4 34 -1 7 -7 11 -15 8 -11 -5 -16 4 -18 36 -2 34 -4 37
-10 18z"/>
<path d="M10085 8552 c-27 -31 -70 -75 -94 -98 -25 -24 -39 -44 -33 -48 6 -3
13 -2 17 4 3 5 11 10 17 10 19 0 -22 -38 -48 -44 -14 -4 -24 -14 -24 -24 1
-16 1 -16 14 1 17 22 22 22 29 -4 8 -30 -44 -105 -72 -105 -22 0 -29 12 -10
18 6 2 7 11 3 23 -7 16 -10 11 -19 -25 -8 -33 -18 -48 -38 -58 -21 -10 -26
-19 -22 -32 4 -12 -2 -27 -15 -40 -11 -11 -18 -25 -14 -31 3 -6 16 1 30 17 41
44 37 21 -9 -52 -119 -191 -243 -386 -254 -399 -5 -5 -24 -36 -43 -67 -24 -42
-40 -58 -56 -58 -24 0 -41 -17 -78 -81 -30 -52 -35 -87 -8 -51 10 13 21 20 24
17 7 -7 -7 -35 -38 -80 -11 -17 -25 -37 -29 -45 -8 -13 -6 -13 8 -2 9 8 19 22
22 33 4 11 10 17 15 14 5 -3 16 10 26 30 9 19 21 32 26 29 7 -4 6 -9 -1 -13
-6 -4 -12 -17 -14 -30 -2 -12 -8 -26 -13 -29 -15 -11 -38 -62 -31 -69 4 -3 7
-1 7 6 0 15 13 28 56 58 31 22 98 132 100 165 1 10 10 30 20 45 10 15 20 37
21 48 2 11 8 22 13 23 6 2 10 16 10 30 0 19 3 23 9 14 6 -10 14 -4 30 23 11
20 21 39 21 42 0 3 11 20 24 37 13 17 33 50 45 74 21 41 36 52 43 32 2 -6 35
35 73 90 39 56 86 124 105 152 20 27 49 57 65 65 35 18 75 53 75 65 0 5 -11 6
-25 2 -32 -8 -32 -2 7 54 39 58 50 67 111 89 44 16 93 53 70 53 -6 0 -32 -9
-58 -21 -61 -27 -74 -15 -40 36 23 33 26 44 20 89 -11 79 -15 80 -70 18z"/>
<path d="M11226 7618 c-13 -40 -14 -42 -15 -21 l-1 22 -23 -22 c-13 -12 -22
-25 -20 -28 1 -4 -6 -14 -17 -24 -18 -16 -20 -16 -20 -2 0 10 -4 17 -10 17
-14 0 -12 -43 3 -59 8 -9 8 -12 0 -7 -7 4 -14 -5 -18 -24 -4 -17 -13 -30 -22
-30 -9 0 -13 -6 -9 -15 3 -8 1 -15 -4 -15 -5 0 -16 -15 -23 -32 -8 -18 -21
-39 -30 -47 -19 -15 -22 -31 -7 -31 6 0 10 6 10 14 0 8 8 17 18 20 9 3 31 23
47 43 17 20 40 48 53 60 12 13 22 28 22 34 0 6 4 7 10 4 5 -3 15 5 22 19 6 14
15 26 19 26 8 0 24 40 21 53 -1 4 3 7 8 7 13 0 13 37 0 45 -6 3 -12 0 -14 -7z"/>
<path d="M14793 5866 c-15 -17 -7 -27 15 -18 16 5 16 4 0 -11 -9 -9 -26 -17
-37 -17 -17 0 -19 -5 -15 -36 4 -38 29 -65 50 -57 7 3 19 -5 26 -16 14 -23 30
-29 22 -7 -5 12 27 38 88 71 10 5 18 13 18 17 0 5 12 8 26 8 14 0 34 5 45 11
17 8 18 13 8 25 -7 8 -18 13 -26 10 -19 -8 -48 5 -33 14 8 5 7 9 -4 13 -9 4
-16 2 -16 -3 0 -6 -16 -8 -37 -4 -86 14 -118 14 -130 0z"/>
</g>
</svg>
